<svg xmlns="http://www.w3.org/2000/svg" viewBox="0 0 500 500"><g id="Tree"><g id="Palm"><path d="M82.85,53.21c-5.54,3.89-18,12.57-33.72,45.35-8.44,17.62-18.92,52.37-21.39,104.77-1.35,28.49,3.41,78,3.41,78,.41,5.83,20.16,5.14,20.34-.75,0,0-11.9-64.84-8.3-112,4.49-58.77,21.13-90.06,44.56-114.81Z" style="fill:#e0e0e0"></path><path d="M83.47,50.9c2.26-2.78,1-2.4,4.31-5.66,5-5,14.69-7.69,23.46-7.41,15.44.48,30.85,6.11,39.5,19.4C143.87,53,136.18,53,128.52,54.57c-2.54-2.78-5.08-5.55-7.75-8.22.55,3.11,1.15,6.2,1.84,9.28-3.56.88-7.09.53-10.69.1-2.81-3.51-5.82-6.81-8.94-10,1.43,3.13,2.84,6.27,4.16,9.45C99.18,54.59,91.05,53.64,83.47,50.9Z" style="fill:#e0e0e0"></path><path d="M85.85,51.74s.71-4.89-7-11.71C66.72,29.32,51.09,27.52,43.21,28.31s-19,4.43-24.06,10.31c0,0,8.38-2.23,19.24,1.18A43.41,43.41,0,0,1,52.9,33.59s-7.58,5.5-9,8a26.47,26.47,0,0,0,14,4.62s5.32-7.26,12-7.82c0,0-5.88,2.79-7.9,8.9A119.78,119.78,0,0,0,85.85,51.74Z" style="fill:#e0e0e0"></path><path d="M85.85,51.74A45.54,45.54,0,0,0,58,49.61C37.67,54.46,27,65.68,23.61,75c0,0,8.13-7.94,22-6.2l6.54-9.41L52.41,69c2.94.22,6.7-.65,11.08-2.34l6.12-12.24L68.34,64.67S80.31,60.38,85.85,51.74Z" style="fill:#ebebeb"></path><path d="M85.85,51.74s3.54-1.6,11.28.7c13.14,3.92,24.66,17.08,28,24.13s5.94,18.33,3.51,25.55c0,0-2.36-8.21-10.76-15.65a42.84,42.84,0,0,0-2.13-15.4s-.8,9.19-2.14,11.7a26.08,26.08,0,0,1-11-9.46s3.43-8.18.51-14.1c0,0,.63,6.38-3.5,11.19C99.6,70.4,92.8,61.66,85.85,51.74Z" style="fill:#ebebeb"></path><path d="M76.55,111.06s3.43-6.73,3.13-13.73c-.08-2-.28-4-.54-6.11,6.42-5.46,6.53-10.44,6.53-10.44a12.64,12.64,0,0,1-7.15,6.12c-1.22-4.49-1-9.14-1.1-13.21,5.32-2.92,6.83-6.4,6.83-6.4a15.09,15.09,0,0,1-7,3c.77-8.71,5.05-16.2,8.61-18.54,0,0,5,2.63,7.53,18.61C96,86.84,89.07,103.9,76.55,111.06Z" style="fill:#f5f5f5"></path></g></g><g id="Floor"><g id="floor"><path id="floor" d="M78.66,232.41c-95.18,55-95.17,144,0,199s249.49,55,344.67,0,95.17-144,0-199S173.84,177.46,78.66,232.41Z" style="fill:#455a64"></path><path d="M77.84,349.57l23.44,13.54,7-4L84.81,345.55Zm-39.67-22.9L61.61,340.2l7-4L45.14,322.65Zm79.34,45.81L140.94,386l7-4-23.44-13.54Zm-107.39-62,11.82,6.82,7-4-16.68-9.63C11.43,305.92,10.73,308.19,10.12,310.48Zm147,84.9,23.44,13.53,7-4-23.44-13.53Zm79.34,45.8L260,454.72l7-4-23.44-13.53Zm46.64,18.88-7,4L288.11,471q5.94-.53,11.82-1.21Zm-86.31-41.78,23.44,13.53,7-4-23.44-13.53Z" style="fill:#fafafa"></path></g></g><g id="Clouds"><path id="Cloud" d="M432.19,148.75c0-4.57-5-7.75-10.69-8.28-6.68-.63-11.42,2.35-11.58,7.61-4.37-1.8-9-.64-8.64,4.16-1.13-1.31-5.39-1.27-6.91-.91a6,6,0,0,0-3.81,3.25,4.44,4.44,0,0,0-.4,2.46c-2.55-.84-8.34-1.35-9.79,1-2.58,4.16,7.73,4.29,9.8,3,.44,3.24,11.52,3.77,14.2.79,2.1,2.11,5.11,2.57,8.36,2.77,5.48.32,8.84-1.53,13.11-3.72,4.65,3.94,12.69,4,16.88-.49,1.07,1,4,1.32,6.37.75,1.55-.37,1.91-1,1.91-1a13.5,13.5,0,0,0,2.84.86c3,.64,8.7,0,6.32-2.77-.8-.94-3.76-1.53-5-1.24-1.32-2.61-6.64-5.08-9.7-2.87-.11-3.16-3-5.63-7.06-6.26C437,147.64,433.74,147.46,432.19,148.75Z" style="fill:#ebebeb"></path><path id="cloud" d="M394.66,103.64a12.49,12.49,0,0,0-4.19-.77c-1.36-.11-1.79-.38-2.05-.67a10,10,0,0,0-12-3.55c-.8-3.26-4.74-6.08-9.07-5.13.15-4.22-5.25-8.76-10.09-9.8-4.65-1-8.71-.57-11.36,2.49-2.84-5.55-14-7.11-20-4.18-3.46,1.69-6.4,3.42-7.84,6.6a13.23,13.23,0,0,0-1.3,6.31c-2.35-2.07-7.05-2.63-10.19-1.42-3.38,1.31-3.63,3.86-3.8,6.45a11.67,11.67,0,0,0-6.15-.11c-2.13.63-3.36,2.3-3.07,3.65-1.69-.09-5.7,1.27-5.24,3,.52,2,5.1,1.8,6.82,1.73a31.79,31.79,0,0,0,4.79-.75,7.31,7.31,0,0,0,2.49.47c2.92,0,4.16-1.27,4.63-2.36,1.42,3,6.49,5.29,10.08,6.21,6.75,1.73,16.3.67,20.46-4.37a7.39,7.39,0,0,0,2,2.45,11.63,11.63,0,0,0,6.24,2.53c2.77.26,10.21.61,12.31-3.79,1.48,2.93,8.11,4.26,13.14,3.55a20.76,20.76,0,0,0,5.64-1.71,33.43,33.43,0,0,0,3.24-1.94c1-.6,1.44-.59,2.77-.19,3.45,1,7.47,1.47,11,0C396.72,107.2,397.3,104.84,394.66,103.64Z" style="fill:#ebebeb"></path></g><g id="Sun"><ellipse id="sun" cx="439.41" cy="92.91" rx="19.79" ry="19.7" style="fill:#ffbda7"></ellipse></g><g id="Shadow"><path id="shadow" d="M193.78,208.2,86.84,269.68c-15.09,8.67-13.3,23.8,4,33.78L294,420.7c86.56,50.1,231-53.95,161.83-92.75L244.62,205.64C227.31,195.66,208.87,199.52,193.78,208.2Z" style="fill:#37474f"></path></g><g id="Characters"><g id="convertible-car"><path d="M315.52,203.54c-13.69-7.86-51.4-37.51-67.63-46.09-29.77-15.39-55.15-12-62.35,4.35l-63.67,41.74Z" style="fill:#BA68C8"></path><path d="M315.52,203.54c-13.69-7.86-51.4-37.51-67.63-46.09-29.77-15.39-55.15-12-62.35,4.35l-63.67,41.74Z" style="fill:#fff;opacity:0.4"></path><path d="M242.3,160.29c-7.38-1.21-25.12-4-32.38-3.82-27.71-1.84-1.93-7.56,8.25-6.2C235.8,152.61,250.84,161.69,242.3,160.29Z" style="fill:#fff;opacity:0.2"></path><path d="M266.76,173.13s-69.89-20.74-75.39-14.88c-3.75,4,62.22,29.49,62.22,29.49Z" style="fill:#BA68C8;opacity:0.2"></path><g id="Interiors"><path d="M386.8,239.3l.05,0L264.14,168.42l-.77-.55-.38.48V310.78Z" style="fill:#263238"></path></g><path d="M154.65,215.25l98.53-56.88h0a23.37,23.37,0,0,1,13,17.32L271,205l-98.52,56.88-15.14-7.51Z" style="fill:#37474f"></path><path d="M155.42,226.49l106.46-61a24.72,24.72,0,0,0-8.7-7.15l-98.53,56.88Z" style="fill:#455a64"></path><path d="M157.32,254.34l-2.67-39.09h0a23.36,23.36,0,0,1,13,17.32l4.77,29.28Z" style="fill:#263238"></path><polygon points="167.68 232.57 172.46 261.86 197.59 274.32 275 229.63 266.21 175.69 167.68 232.57" style="fill:#37474f"></polygon><polygon points="269.27 229.96 369.9 288.06 292.49 332.75 191.85 274.65 269.27 229.96"></polygon><path d="M243.67,163.86c-14.5,8-30.3,17-44.73,25.31-13.13,7.58-31.79,18.3-44.66,25.89.82,10.95,1.66,21.9,2.6,32.85-.54-10.63-1.17-21.26-1.82-31.88,6.07,3.21,11.33,8.51,12.24,15.57.49,2.69,1.76,9.71,2.26,12.51-.42-2.77-1.5-9.89-1.9-12.57-.71-7.24-6-12.92-12.14-16.36,17.1-9.72,38-21.83,55-31.69C221.21,177.19,233.09,170.22,243.67,163.86Z" style="fill:#455a64"></path><path d="M243.67,163.86c-14.5,8-30.3,17-44.73,25.31-13.13,7.58-31.79,18.3-44.66,25.89.82,10.95,1.66,21.9,2.6,32.85-.54-10.63-1.17-21.26-1.82-31.88,6.07,3.21,11.33,8.51,12.24,15.57.49,2.69,1.76,9.71,2.26,12.51-.42-2.77-1.5-9.89-1.9-12.57-.71-7.24-6-12.92-12.14-16.36,17.1-9.72,38-21.83,55-31.69C221.21,177.19,233.09,170.22,243.67,163.86Z" style="fill:#fff;opacity:0.2"></path><g id="back-car"><path d="M114.53,193.43c7.08-.9,13,2.95,14.72,4,4.19,2.48,9,5.25,11.64,6.84,5.46,3.32,16.09,9.65,16.09,9.65l70.49-40.69s-28.06-14.38-37.73-18.12S117.27,186.19,114.53,193.43Z" style="fill:#BA68C8"></path><g style="opacity:0.5"><path d="M114.53,193.43c7.08-.9,13,2.95,14.72,4,4.19,2.48,9,5.25,11.64,6.84,5.46,3.32,16.09,9.65,16.09,9.65l70.49-40.69s-28.06-14.38-37.73-18.12S117.27,186.19,114.53,193.43Z" style="fill:#fff"></path></g><g style="opacity:0.30000000000000004"><path d="M197.1,160a308.18,308.18,0,0,0-34,16.41,373,373,0,0,0-32.33,19.49c9.94-7.77,20.86-14.21,31.87-20.34,11.1-6,22.45-11.64,34.46-15.56Z" style="fill:#BA68C8"></path></g></g><path d="M155.42,226.49l1.46,21.42c-7.47-4.32-18.44-12.33-23.33-20.57s-8.8-28.51.44-23.18l16.4,9.48,73.33-42.33s-4.69-2.37-10.6-5.32-9.89-4.71-5.77-7.09c4.47-2.58,23,.13,36,5.16l-88.67,51.19Z" style="fill:#37474f"></path><g id="Character"><g id="Bottom"><path d="M269.19,207.13s-4.62,7.55-5.43,10.69-1.88,4.21-2,7.92c0,.8.08,2.45.06,3.11a1,1,0,0,1-1.11,1c-1.54,0-3.46-3.13-4-6.29a84.85,84.85,0,0,1-.85-10.88,4.47,4.47,0,0,1,.93-2.23,6.76,6.76,0,0,1,.92-1.07c.77-1.35,1.56-4,2.35-5.86Z" style="fill:#ffa8a7"></path><path d="M252.3,215.16a3.54,3.54,0,0,0-.61,1c-.17.65.93,3.11,1.38,4a5.24,5.24,0,0,1,.35,4,9.09,9.09,0,0,0,1.1,6.31,15,15,0,0,0,6.48,6.11c3.38,1.74,5,.24,5,.24s1.45-1.48.92-2.29S252.3,215.16,252.3,215.16Z" style="fill:#263238"></path><path d="M257.65,209.39a.66.66,0,0,0-.65.19c-.13.1-1.09,1.54-1.8,2.26s-2.45,2-2.9,3.32c.32,2.74,2.45,5,2.34,7.51s-.64,5.34,2.62,9.05,7.17,4.75,8.75,4.23,1.75-2,.33-5.23c-1.51-3.39-1.63-10.15-1.63-10.15a20.48,20.48,0,0,1,.18-2.83,18.46,18.46,0,0,1,.81-2.69,2,2,0,0,0,.07-1.27,2.18,2.18,0,0,0-.92-.91,9.3,9.3,0,0,0-1.85-1,3.4,3.4,0,0,0-2.09-.14c-.49.15-.93.45-1.43.55a1.87,1.87,0,0,1-1.83-.68,1.5,1.5,0,0,1-.17-1.79A2.71,2.71,0,0,1,257.65,209.39Z" style="fill:#37474f"></path><path d="M255.49,228.9a6.34,6.34,0,0,1,6.18-1.88c4.09.78,5.1,3.07,5.49,4.37.46,1.56.71,4.27-1.12,4.69-2,.46-4.06-.18-7.06-2.42A8.75,8.75,0,0,1,255.49,228.9Z" style="fill:#fafafa"></path><path d="M258.63,217.06a.43.43,0,0,0,.38.07c.69-.19,4.17-.25,5.77,1.88.3-.15.32-.52.09-1.09a7.81,7.81,0,0,0-6.13-1.56.39.39,0,0,0-.27.5A.45.45,0,0,0,258.63,217.06Z" style="fill:#fafafa"></path><path d="M264.74,221.4a1.21,1.21,0,0,0,0-1.13,7.94,7.94,0,0,0-5.88-1.34.37.37,0,0,0-.26.49.41.41,0,0,0,.15.21.43.43,0,0,0,.38.07C259.78,219.51,263.09,219.46,264.74,221.4Z" style="fill:#fafafa"></path><path d="M265.34,227.09a2.27,2.27,0,0,0-.24-1.54,7.93,7.93,0,0,0-6.05-1.49.39.39,0,0,0-.27.5.42.42,0,0,0,.16.21.41.41,0,0,0,.37.07C260.05,224.63,263.89,224.59,265.34,227.09Z" style="fill:#fafafa"></path><path d="M258.84,222.2a.41.41,0,0,0,.37.07c.69-.19,4.1-.24,5.72,1.81a1.41,1.41,0,0,0-.1-1.25,8.07,8.07,0,0,0-5.89-1.34.39.39,0,0,0-.26.5A.37.37,0,0,0,258.84,222.2Z" style="fill:#fafafa"></path><path d="M277.37,220.47a135.15,135.15,0,0,0-1.13,14.59c0,4.57,2,7.19,4.24,10.7.48.77,1.63,2.23,2,2.85a1,1,0,0,1-.38,1.6c-1.42.94-6.64.39-9.18-2.18s-4.43-7.48-5.87-9.45a24.31,24.31,0,0,1-1.51-2.28c-.45-.75-.19-1.37-.12-2.12,0-.37.26-1.35.26-1.35-.1-1.83-.92-8.65-1.2-10.47Z" style="fill:#ffa8a7"></path><path d="M263.35,240.6a3.85,3.85,0,0,0-.08,1.3c.17.73,2.55,2.64,3.46,3.32a6,6,0,0,1,2.41,3.76,10.45,10.45,0,0,0,4.38,5.72,17.31,17.31,0,0,0,9.62,2.89c4.25.07,5.07-2.21,5.07-2.21s.67-2.17-.28-2.72S263.35,240.6,263.35,240.6Z" style="fill:#263238"></path><path d="M265.65,232.26c-.12,0-.34.06-.54.5-.07.17-.28,2.07-.61,3.14s-1.38,3.19-1.15,4.7c1.74,2.56,5,3.77,6.23,6.31s2.15,5.61,7.32,7.69,9.59,1.21,10.89-.08.68-2.87-2.4-5.35c-3.26-2.63-6.9-9.28-6.9-9.28a23.54,23.54,0,0,1-1.3-2.9,20.68,20.68,0,0,1-.59-3.06,2.24,2.24,0,0,0-.59-1.29,2.48,2.48,0,0,0-1.39-.46,11.77,11.77,0,0,0-2.37-.11,3.64,3.64,0,0,0-2.15.89,16.89,16.89,0,0,1-1.14,1.25,2.12,2.12,0,0,1-2.17.21,1.71,1.71,0,0,1-1.1-1.68A4.05,4.05,0,0,1,265.65,232.26Z" style="fill:#37474f"></path><path d="M273.67,252.68a6.85,6.85,0,0,1,5.15-4.9c4.47-1.23,6.67.55,7.73,1.66,1.27,1.31,2.94,3.88,1.33,5.2s-4.12,1.8-8.27,1A10.08,10.08,0,0,1,273.67,252.68Z" style="fill:#fafafa"></path><path d="M270.63,239.39a.46.46,0,0,0,.4-.11c.59-.54,4-2.3,6.72-1,.21-.29,0-.67-.48-1.12a8.65,8.65,0,0,0-6.9,1.45.42.42,0,0,0,0,.62A.49.49,0,0,0,270.63,239.39Z" style="fill:#fafafa"></path><path d="M279,240.71a1.38,1.38,0,0,0-.61-1.12,8.89,8.89,0,0,0-6.54,1.55.42.42,0,0,0,0,.62.49.49,0,0,0,.27.13.46.46,0,0,0,.4-.11C273,241.26,276.3,239.59,279,240.71Z" style="fill:#fafafa"></path><path d="M282.5,246.06a2.53,2.53,0,0,0-1-1.41,8.82,8.82,0,0,0-6.79,1.48.42.42,0,0,0,0,.63.53.53,0,0,0,.26.13.5.5,0,0,0,.41-.12C276,246.21,279.76,244.28,282.5,246.06Z" style="fill:#fafafa"></path><path d="M273.5,244.39a.47.47,0,0,0,.41-.12c.58-.52,3.95-2.24,6.62-1a1.58,1.58,0,0,0-.75-1.18,8.9,8.9,0,0,0-6.54,1.56.42.42,0,0,0,0,.62A.53.53,0,0,0,273.5,244.39Z" style="fill:#fafafa"></path><path d="M256.75,148.58s19.17,11.64,27.91,21.22c3.13,3.42,5,6.4,1.38,14.9-2.82,6.54-7.57,13.71-12,22.15l-38.4-48Z" style="fill:#BA68C8"></path><path d="M256.75,148.58s19.17,11.64,27.91,21.22c3.13,3.42,5,6.4,1.38,14.9-2.82,6.54-7.57,13.71-12,22.15l-38.4-48Z" style="fill:#fff;opacity:0.5"></path><path d="M274.62,205.71c-6-5.77-24.51-38.35-24.51-38.35l.9-.12c4.88-1.93,7.07-8.35,7.07-8.35a11.08,11.08,0,0,1-2.36,8.19c2.65,2.07,8.65,6.75,17.87,14.08,1.61,1.28,4.85,3.7,4.5,8.25-.47,6-.85,11.79-.85,11.79Z" style="fill:#BA68C8;opacity:0.4"></path><path d="M256.78,148.58h0l-37,5.25c-1.18,6.43-1.17,12.83,2.23,18.23,2.46,3.92,5.25,6.34,15.14,11.92,9.21,5.19,17.47,9.54,19.58,10.75,1.58.92,1.17,4.5,1.51,8.75.37,4.46.76,7,2.91,16.5,1,4.65,2.14,8.67,2.14,8.67s7.79,1.11,13.7-1.79c0,0-.17-23.35-.28-29.07-.1-4.9.38-9.44-3.27-13.21-3.12-3.23-22.42-17.34-22.42-17.34S259.86,157.44,256.78,148.58Z" style="fill:#BA68C8"></path><g style="opacity:0.5"><path d="M256.78,148.58h0l-37,5.25c-1.18,6.43-1.17,12.83,2.23,18.23,2.46,3.92,5.25,6.34,15.14,11.92,9.21,5.19,17.47,9.54,19.58,10.75,1.58.92,1.17,4.5,1.51,8.75.37,4.46.76,7,2.91,16.5,1,4.65,2.14,8.67,2.14,8.67s7.79,1.11,13.7-1.79c0,0-.17-23.35-.28-29.07-.1-4.9.38-9.44-3.27-13.21-3.12-3.23-22.42-17.34-22.42-17.34S259.86,157.44,256.78,148.58Z" style="fill:#fff"></path></g><path d="M222.32,153.59l.55-.06c0,6.44.73,11.35,5.25,16.23,3-1.89,2.49-3.76,1.49-7.1-.3-1-.65-2.15-.92-3.43a32.67,32.67,0,0,1-.82-6.29l.55-.06a33,33,0,0,0,.8,6.24c.27,1.26.61,2.39.91,3.39,1,3.33,1.66,5.56-1.63,7.66a32.34,32.34,0,0,0,3.69,3.22c6.8,5.15,16.45,11.26,22.22,14.9,2,1.28,3.6,2.28,4.42,2.84,3.34,2.26,3.39,3.54,3.08,9.21-.27,5,2.62,21.66,4.15,28.5h-.56c-1.55-7-4.4-23.56-4.13-28.52.31-5.74.15-6.7-2.85-8.73-.81-.55-2.4-1.56-4.41-2.83-5.77-3.65-15.43-9.76-22.26-14.93C223.49,167.5,222.33,161.75,222.32,153.59Z" style="fill:#BA68C8;opacity:0.4"></path></g><g id="Top"><path d="M260,97.82c-4.83,16.44-7,20.51-7.21,26.19-5.75,1.12-12.38-6-10.13-12.81a180.86,180.86,0,0,0,7.52-19.85c-.32-3.79-1.66-12.94-3.27-17.94a3.63,3.63,0,0,0-1.58-2c-2.12-1.29-3.36-3.25-5-4.91-1.24-1.29-2.28-1.59-2.14-2a2,2,0,0,1,2.54-1c.75.22,2.72,1.73,3.35,1.88s-.84-2.6-3-5.26c-1.26-1.53-2-2.95-2-4.36,0-.67.41-1.16.9-1.06a1.29,1.29,0,0,1,.51.25,1.38,1.38,0,0,1,.07-1.35c.42-.75,1-.52,1.57-.05l.68.63a1.45,1.45,0,0,1,1.9.08c.2.16.67.66.67.66a1.61,1.61,0,0,1,2.33.28,22.94,22.94,0,0,1,3.33,3.36,17.19,17.19,0,0,1,2,3.36,16,16,0,0,1,1.47,3.7c.72,3.61,0,4.19,1.59,8.69,2.48,7.07,2.49,7,4.77,13.78C262.37,92.5,261,94.44,260,97.82Z" style="fill:#ffa8a7"></path><path d="M250.58,69.35c0-2.16-2.44-4.1-4.4-4.81C248.75,64.77,251,66.16,250.58,69.35Z" style="fill:#f28f8f"></path><path d="M237.68,102.57l.09-.27c.28-.83.69-1.59.89-2.45.06-.25.2-2.43.26-2.46a14.85,14.85,0,0,0,5.65-4.3c2.23-3,2.59-7.24.21-10.18-2.11-2.6-5.53-4-8.76-4.61a20.41,20.41,0,0,0-7.27,0c-8.33,1.57-14.53,9.29-13.56,17.68a11.11,11.11,0,0,0,1.15,4c2.41,4.55,8.4,6.27,11.17,10.62a4.23,4.23,0,0,0,1.21,1.47c1.22.75,2.88-1.13,3.7-1.85a23.21,23.21,0,0,0,3.7-4.16A12.47,12.47,0,0,0,237.68,102.57Z" style="fill:#263238"></path><path d="M225.31,92c1.38-2.22.12-5.09-1.48-6.88A9,9,0,0,0,216.4,82a10.93,10.93,0,0,0-6.53,2.71c-1.25,1.17-2.14,2.69-3.41,3.84a12.83,12.83,0,0,1-7.51,2.8c-2.7.25-5.44.1-8.13.46-1.41.19-3,.69-3.55,2a4.12,4.12,0,0,0,.39,3.2,11.55,11.55,0,0,0,3.3,4.58c2.53,2,5.95,2.27,9.15,2.47a15.36,15.36,0,0,1-8.25-.66c2.63,2.78,6.75,3.54,10.57,3.52,3.59,0,7.37-.69,10.14-3,3.39-2.79,4.91-7.7,8.9-9.54,1.13-.53,2.45-.79,3.32-1.7A4.55,4.55,0,0,0,225.31,92Z" style="fill:#263238"></path><g id="Chest"><path d="M239.6,113.42s-11.92,3.66-15.92,4.08c-2.54,1.07-4.43,2.11-4.43,2.11-1.14,1.69-2.88,8.58-2.74,14.69.07,3,2.52,9.37,3,12.79.38,2.93,0,4.85-.72,9.8,9.51,6.91,35.1,1.34,38.81-8.07,0,0-1.3-9.69-2-13.89-1.2-7.54-.32-9.05-5.14-15.63a36.7,36.7,0,0,0-7.77-8.1A4.76,4.76,0,0,1,239.6,113.42Z" style="fill:#BA68C8"></path></g><g id="Head"><path d="M225.74,114.53c-.23-2.57-1-8.39-1-8.39-.35.76-2.52,1.92-5.09,0a5,5,0,0,1-1.3-6.57c1.3-2,3.69-2.06,5.45.22.11.13.77-.11.89-.17a1.29,1.29,0,0,0,.54-.59,2.07,2.07,0,0,0,.16-1,5.35,5.35,0,0,0-.22-1.1,25.62,25.62,0,0,0,7.29-5.12c2.73-2.93,4-7.18,3.87-7.67a12.25,12.25,0,0,1,3.46,1.92,8.58,8.58,0,0,1,2.58,3.24,23.68,23.68,0,0,1,2.07,7.1c.92,6.41,0,9.47-2.2,11.38a6.6,6.6,0,0,1-4.27,2.05l.28,2.34c.1.9.64,1.36,1.35,1.21,1.41,1.23,5,4.23-1.42,5.9-8.26,2.15-13.48-1-14.5-1.82C225.25,116.71,225.86,115.79,225.74,114.53Z" style="fill:#ffa8a7"></path><path d="M238,109.87c-4.51.56-8.59-.26-11.05-3a5.94,5.94,0,0,0,2.69,3.17,13.14,13.14,0,0,0,8.53,1.22Z" style="fill:#f28f8f"></path><path d="M238.05,103l-4.53-.8a2.19,2.19,0,0,0,1.77,2.66A2.44,2.44,0,0,0,238.05,103Z" style="fill:#b16668"></path><path d="M236.28,104.8a2.52,2.52,0,0,1-1,0,2.18,2.18,0,0,1-1.73-1.57A2.64,2.64,0,0,1,236.28,104.8Z" style="fill:#f28f8f"></path><path d="M230.62,96.26c.12.68.48-.34,1.16-.47s1.42.7,1.3,0a1.25,1.25,0,0,0-2.46.45Z" style="fill:#263238"></path><path d="M239.18,94.4c.13.68.4-.24,1.08-.36s1.51.59,1.39-.09a1.26,1.26,0,0,0-2.47.45Z" style="fill:#263238"></path><polygon points="235.01 92.77 236.58 101.03 240.38 99.03 235.01 92.77" style="fill:#f28f8f"></polygon><path d="M241.83,91.4l-3-.74a1.47,1.47,0,0,1,1.8-1.12A1.58,1.58,0,0,1,241.83,91.4Z" style="fill:#263238"></path><path d="M228.62,94.05l2.56-1.7a1.48,1.48,0,0,0-2.1-.46A1.6,1.6,0,0,0,228.62,94.05Z" style="fill:#263238"></path></g></g><path d="M203.25,183.61a2,2,0,0,1,.15-.87,2.33,2.33,0,0,1,1.35-.91.28.28,0,0,0,.18-.11.45.45,0,0,0,.06-.24,1.62,1.62,0,0,1,.78-1.15,6.44,6.44,0,0,1,1.31-.58.7.7,0,0,0,.14-.08.74.74,0,0,0,.11-.24,2.47,2.47,0,0,1,1.15-1.41c.84-.51,2.89-.57,3-1.6.13-1.2.17-2.3.25-3.74.19-3.35.12-6.7.13-10,0-1.66.07-3.32.1-5,0,0,.17-8.31-.2-19.35s-.8-14.34,7.49-18.7c7.59,4.63,4.3,19.46,4.3,19.46S223,152.51,223,157a35.42,35.42,0,0,1-.72,6.07c-.46,2.53-1.12,5-1.45,7.58-.86,6.73-1,8.34-.92,9.09a8.82,8.82,0,0,1-.36,3.82c-.3.85-1.22,1.5-1.77,2.22a16.45,16.45,0,0,1-1.35,1.63,9.88,9.88,0,0,1-4.41,2,14.16,14.16,0,0,0-3.51,1c-2.13,1-2.61-1.25-.94-2.55a6,6,0,0,1,2.24-1.12c.54-.17,2.36-.57,1.4-1.36a3.23,3.23,0,0,0-3-.32,11.76,11.76,0,0,0-1.77.56c-.51.22-2.32,1.14-3,1.56A21.54,21.54,0,0,1,203.25,183.61Z" style="fill:#ffa8a7"></path></g><g id="character"><g id="top"><path d="M148.38,141.78a6.34,6.34,0,0,0-2.95.64c-.93.48-1.7,1.24-2.64,1.73a7.78,7.78,0,0,1-3.82.7c-2.55-.08-5.29-1-6.63-3.12-.51-.81-.78-1.75-1.28-2.57-1.31-2.14-4-3.11-5.46-5.12a7.65,7.65,0,0,1-.64-7.27,14.58,14.58,0,0,1,4.77-5.83,3.14,3.14,0,0,1-1.49-4.67c-.57,1.07.57,2.42,1.78,2.45a3.91,3.91,0,0,0,3-1.8,24.93,24.93,0,0,1,2.13-2.93,7.5,7.5,0,0,1,6.56-1.61c2.87.5,5.77,2,8.56,1.18a6.24,6.24,0,0,0,1.85-1c1.23-.9,2.06-2.22,3.24-3.13a26.38,26.38,0,0,1,3.28-2.14,24.1,24.1,0,0,1,7.62-2.66c5.2-.85,10.78.32,14.2,4.6a6.83,6.83,0,0,1,1.55,3.4c.12,1-.07,2,.12,3s.95,2,1.23,3.08a5.51,5.51,0,0,1-2.82,6.54,21.12,21.12,0,0,0-3.73,1.9,12.45,12.45,0,0,0-2.16,2.85,16.67,16.67,0,0,1-6.27,5.37c-1.94.91-4.9.53-6.33,2.33a8.59,8.59,0,0,0-.82,1.45,6.44,6.44,0,0,1-4.14,3.17C154.27,143.06,151.2,141.8,148.38,141.78Z" style="fill:#263238"></path><g id="Arm"><path d="M209.25,123.63c1.85,4.14.91,6.57-3.34,11.77-6.84,8.39-18.22,22-18.22,22l-11-15.61c3.14-1.4,8.09-2.92,9.6-4.49,6.22-6.41,9.37-9.43,10.75-11.18,0,0-4.53-14.93-5.38-16.5a9.39,9.39,0,0,0-3.24-3c-3.07-2.14-3.48-3.48-5-6.79-.27-.57-.54-1.14-.8-1.71a6.21,6.21,0,0,0-.4-.82c-.15-.24-.27-.45,0-.72a1.07,1.07,0,0,1,.69-.3,3.08,3.08,0,0,1,2.3.91,14.65,14.65,0,0,1,1.61,2c.4.51.6-.2.65-.55.22-1.73-.91-4.25-1.59-5.82a22.9,22.9,0,0,1-1.39-3.07,3.45,3.45,0,0,1,0-2.06c.16-.44.46-.79,1-.54a2.39,2.39,0,0,1,.77.78c.47.6.86.43,1.66.53a6.26,6.26,0,0,1,1.5.23,3.69,3.69,0,0,1,1.43,1.18,1.18,1.18,0,0,1,1.46.33,16.14,16.14,0,0,1,3.14,4.38,20,20,0,0,1,1.52,6.15,11.32,11.32,0,0,0,1.21,3.76c.77,1.43,3.78,6.78,6.81,11.51A47.27,47.27,0,0,1,209.25,123.63Z" style="fill:#b16668"></path><path d="M188.65,100.18a6.6,6.6,0,0,1,4.46,4.13,4.46,4.46,0,0,0-1.17-3A4.08,4.08,0,0,0,188.65,100.18Z" style="fill:#9a4a4d"></path></g><g id="head"><path d="M161.34,140.87l-.34-8.08c-.14,1.23-2.92,2.16-5.21-.12-2.09-2.07-2.45-4.91-.79-6.15,1.91-1.44,4-.65,5.7,1.7.23.31,1.15-.42,1.28-.59a2.61,2.61,0,0,0,.42-1.66,11.69,11.69,0,0,0-.49-2.73c-.15-.55-.62-1.46-.33-2a3,3,0,0,1,.71-.79,11.39,11.39,0,0,0,1.42-1.67l1.34-1.81a4.9,4.9,0,0,0,1.31-3.1,32,32,0,0,0,4.65,1.53,6.66,6.66,0,0,0,3.73,0,3.87,3.87,0,0,1-1.81-.64,1.46,1.46,0,0,1-.74-1.16,12.24,12.24,0,0,0,4.07,1.1c.49,0,1.34-.12,1.75.15s.62,1,.86,1.44a17,17,0,0,1,2.19,6.14c1,7,.83,10.86-1.74,12.91a9.59,9.59,0,0,1-5.2,2.31s0,1.39.08,2.67a1.4,1.4,0,0,0,.82,1.3c.4.18,2.38,2.42-3,3.66-5.21,1.2-9.62,3.17-12.53-.95C161.86,144.46,161.34,140.87,161.34,140.87Z" style="fill:#b16668"></path><path d="M171.07,129.28l3.61,1a1.84,1.84,0,0,1-2.29,1.35A2,2,0,0,1,171.07,129.28Z" style="fill:#9a4a4d"></path><path d="M171.32,130.1a2.06,2.06,0,0,1,2.11,1.54,1.75,1.75,0,0,1-1,0,1.94,1.94,0,0,1-1.35-1.52A1.45,1.45,0,0,1,171.32,130.1Z" style="fill:#ffa8a7"></path><path d="M178.31,118l-2.87.25a1.38,1.38,0,0,1,1.26-1.57A1.51,1.51,0,0,1,178.31,118Z" style="fill:#263238"></path><path d="M165,120.77l2.7-1.11a1.4,1.4,0,0,0-1.86-.83A1.53,1.53,0,0,0,165,120.77Z" style="fill:#263238"></path><path d="M176.33,122.61c.08.65.52-.31,1.19-.37s1.29.8,1.21.15a1.24,1.24,0,0,0-1.34-1.08A1.17,1.17,0,0,0,176.33,122.61Z" style="fill:#263238"></path><path d="M167,123.91c.08.65.52-.28,1.19-.34s1.29.77,1.21.12a1.24,1.24,0,0,0-1.34-1.07A1.16,1.16,0,0,0,167,123.91Z" style="fill:#263238"></path><polygon points="177.37 126.21 173.46 128.09 172.07 120.26 177.37 126.21" style="fill:#9a4a4d"></polygon><path d="M174.12,137.6c-4.65.86-9.59-1.22-11.1-4.18,0,0,.2,3,4,4.71,2.74,1.25,7.12,1.17,7.12,1.17Z" style="fill:#9a4a4d"></path></g><g id="chest"><path d="M189.75,165.7s0,1.15.15,5.89c.18,4.95.23,6.52.23,6.52s.56,10.18-6.85,12.81c-13.25,4.7-28.6-2.69-28.6-2.69a26.15,26.15,0,0,1,1.16-7.17c1.22-4.13.76-7.78-.75-12.69Z" style="fill:#b16668"></path><path d="M190.14,168.57c-6,7.15-23.67,10.33-34.56,4.74a13.12,13.12,0,0,0-.87-4.17s5.32.48,6.38-7.78-5.84-16.26-5.84-16.26l4.21-.82a19.06,19.06,0,0,0,10.7.94c5.75-1.24,4.86-3.65,4.86-3.65l4.94-1.16a52.24,52.24,0,0,1,9.55,11.18c4.1,6.81.21,12.74.52,16C190.06,167.92,190.1,168.25,190.14,168.57Z" style="fill:#f0f0f0"></path></g><g id="arm"><path d="M129.58,150.28c16.65,8,21.3,11.84,25.13,18.86,9.42-.9,8.54-15.54.54-24,0,0-16-4.45-23.26-8.49,0,0-9.42-12.3-11.45-17.22a3.69,3.69,0,0,1,0-2.58c.83-2.43.52-4.78.69-7.14.14-1.84.77-2.78.37-3a2.1,2.1,0,0,0-2.68,1,3.83,3.83,0,0,0-.38.82c-.12.34-.24.69-.38,1-.67,1.68-2.07,3-2.68.39a31,31,0,0,1-.66-4.51c-.11-1.44.28-2.9,0-4.32-.15-.78-.7-2.07-1.61-2.24-.24,0-.43.2-.53.42-.23.51-.24,1.08-.47,1.56a1.93,1.93,0,0,0-2.28,1.68,3.33,3.33,0,0,0-2.09,1.93,8.92,8.92,0,0,0-.62,2.86,19.23,19.23,0,0,0,2.3,12c1.23,2.06,2.79,3.85,3.83,6,.18.39.36.77.53,1.16,3.4,7.65,4.52,10.38,7.66,17.37C122.85,146.79,124.41,147.79,129.58,150.28Z" style="fill:#b16668"></path><path d="M154.26,154.88A11.57,11.57,0,0,0,147,151c-.1,0-.09.22,0,.25a13.46,13.46,0,0,1,6.55,4.31,12.91,12.91,0,0,1,2.54,7.65c0,.11.17.33.23.14C157.38,160.39,156.23,157.17,154.26,154.88Z" style="fill:#9a4a4d"></path><path d="M115.94,112.17c-2.12,1.11-2.69,4.61-2.33,7C112.45,116.41,112.6,113.44,115.94,112.17Z" style="fill:#9a4a4d"></path></g></g><g id="bottom"><path d="M205.47,243s-4.75,7.77-5.58,11-1.93,4.33-2.08,8.14c0,.83.08,2.52.06,3.2s-.34,1-1.14,1c-1.58,0-3.55-3.23-4.14-6.46a87.23,87.23,0,0,1-.88-11.19,4.58,4.58,0,0,1,.95-2.29,7.18,7.18,0,0,1,1-1.1c.8-1.39,1.6-4.15,2.41-6Z" style="fill:#b16668"></path><path d="M188.12,251.27a3.59,3.59,0,0,0-.63,1c-.18.67.95,3.19,1.41,4.12a5.39,5.39,0,0,1,.36,4.08,9.35,9.35,0,0,0,1.13,6.48,15.41,15.41,0,0,0,6.67,6.28c3.46,1.8,5.12.25,5.12.25s1.49-1.52.94-2.35S188.12,251.27,188.12,251.27Z" style="fill:#263238"></path><path d="M193.61,245.34c-.12,0-.31-.1-.66.19-.14.11-1.13,1.59-1.86,2.33s-2.51,2.07-3,3.41c.32,2.81,2.51,5.14,2.4,7.71s-.66,5.5,2.69,9.31,7.37,4.88,9,4.35,1.79-2.09.33-5.37c-1.55-3.49-1.67-10.44-1.67-10.44a21.91,21.91,0,0,1,.18-2.92,18.49,18.49,0,0,1,.84-2.75,2.11,2.11,0,0,0,.07-1.31,2.27,2.27,0,0,0-1-.94,10.33,10.33,0,0,0-1.9-1,3.45,3.45,0,0,0-2.15-.15,13.13,13.13,0,0,1-1.47.57,1.94,1.94,0,0,1-1.88-.7,1.55,1.55,0,0,1-.18-1.84S193.61,245.34,193.61,245.34Z" style="fill:#37474f"></path><path d="M191.39,265.39a6.54,6.54,0,0,1,6.35-1.94c4.2.81,5.25,3.16,5.64,4.5.47,1.6.74,4.39-1.15,4.82s-4.16-.19-7.25-2.49A9,9,0,0,1,191.39,265.39Z" style="fill:#fafafa"></path><path d="M194.62,253.22a.43.43,0,0,0,.38.07c.72-.2,4.3-.25,5.94,1.93.3-.15.32-.53.09-1.12a8,8,0,0,0-6.3-1.6.38.38,0,0,0-.27.51A.42.42,0,0,0,194.62,253.22Z" style="fill:#fafafa"></path><path d="M200.9,257.68a1.24,1.24,0,0,0,0-1.16,8.19,8.19,0,0,0-6-1.38.4.4,0,0,0-.27.51.42.42,0,0,0,.16.21.49.49,0,0,0,.39.08C195.8,255.74,199.2,255.69,200.9,257.68Z" style="fill:#fafafa"></path><path d="M201.51,263.53a2.32,2.32,0,0,0-.24-1.58,8.1,8.1,0,0,0-6.23-1.53.4.4,0,0,0-.27.51.5.5,0,0,0,.16.22.52.52,0,0,0,.39.07C196.07,261,200,261,201.51,263.53Z" style="fill:#fafafa"></path><path d="M194.83,258.51a.51.51,0,0,0,.38.07c.71-.2,4.22-.25,5.88,1.85a1.39,1.39,0,0,0-.11-1.27,8.17,8.17,0,0,0-6-1.38.38.38,0,0,0-.27.51A.5.5,0,0,0,194.83,258.51Z" style="fill:#fafafa"></path><path d="M213.88,256.73a138.41,138.41,0,0,0-1.16,15c0,4.7,2.06,7.39,4.35,11,.5.79,1.68,2.29,2.09,2.93a1.07,1.07,0,0,1-.39,1.64c-1.46,1-6.82.41-9.44-2.24s-4.55-7.69-6-9.71c-.56-.77-1.08-1.54-1.56-2.34s-.19-1.41-.11-2.18c0-.38.26-1.39.26-1.39-.1-1.88-.94-8.89-1.23-10.76Z" style="fill:#b16668"></path><path d="M199.47,277.42a3.77,3.77,0,0,0-.08,1.34c.18.75,2.61,2.7,3.55,3.4a6.17,6.17,0,0,1,2.48,3.86,10.7,10.7,0,0,0,4.5,5.89,17.78,17.78,0,0,0,9.88,3c4.38.08,5.22-2.27,5.22-2.27s.69-2.23-.29-2.79S199.47,277.42,199.47,277.42Z" style="fill:#263238"></path><path d="M201.84,268.84c-.13,0-.35.06-.56.52-.08.17-.29,2.13-.63,3.22s-1.42,3.28-1.18,4.84c1.79,2.63,5.18,3.86,6.4,6.48s2.21,5.77,7.52,7.91,9.86,1.24,11.2-.09.69-3-2.47-5.5c-3.35-2.7-7.09-9.53-7.09-9.53a25.61,25.61,0,0,1-1.34-3,20.61,20.61,0,0,1-.6-3.15,2.37,2.37,0,0,0-.61-1.33,2.6,2.6,0,0,0-1.43-.47,11.65,11.65,0,0,0-2.43-.11,3.74,3.74,0,0,0-2.21.91c-.43.4-.71.93-1.17,1.28a2.19,2.19,0,0,1-2.23.23,1.78,1.78,0,0,1-1.14-1.74A4.15,4.15,0,0,1,201.84,268.84Z" style="fill:#37474f"></path><path d="M210.07,289.83a7.05,7.05,0,0,1,5.3-5c4.59-1.26,6.85.57,7.94,1.71,1.3,1.35,3,4,1.37,5.34s-4.24,1.85-8.5,1.08A10.45,10.45,0,0,1,210.07,289.83Z" style="fill:#fafafa"></path><path d="M207,276.17a.48.48,0,0,0,.41-.11c.61-.55,4.14-2.36,6.9-1,.22-.3.05-.69-.48-1.16a9,9,0,0,0-7.1,1.5.44.44,0,0,0,0,.64A.52.52,0,0,0,207,276.17Z" style="fill:#fafafa"></path><path d="M215.5,277.52a1.42,1.42,0,0,0-.62-1.15,9.12,9.12,0,0,0-6.72,1.6.43.43,0,0,0,0,.64.52.52,0,0,0,.28.13.45.45,0,0,0,.41-.12C209.43,278.09,212.78,276.38,215.5,277.52Z" style="fill:#fafafa"></path><path d="M219.15,283a2.66,2.66,0,0,0-1.06-1.45,9.07,9.07,0,0,0-7,1.53.43.43,0,0,0,0,.64.5.5,0,0,0,.27.14.53.53,0,0,0,.42-.12C212.44,283.18,216.33,281.2,219.15,283Z" style="fill:#fafafa"></path><path d="M209.9,281.31a.49.49,0,0,0,.42-.12c.6-.54,4.06-2.31,6.81-1a1.6,1.6,0,0,0-.77-1.21,9.12,9.12,0,0,0-6.72,1.59.43.43,0,0,0,0,.65A.57.57,0,0,0,209.9,281.31Z" style="fill:#fafafa"></path><path d="M192.69,182.84s19.7,12,28.68,21.8c3.22,3.53,5.19,6.58,1.42,15.32-2.9,6.72-7.78,14.09-12.35,22.77L171,193.38Z" style="fill:#455a64"></path><path d="M211.05,241.56c-6.19-5.94-25.19-41.41-25.19-41.41l.92-.11a22.23,22.23,0,0,1,5.72-10.56c.51,2.68-.36,8.76-2.08,10.74,2.73,2.12,10.1,8.57,19.58,16.11,1.65,1.31,5,3.8,4.61,8.47-.47,6.11-.87,12.12-.87,12.12Z" style="fill:#37474f"></path><path d="M192.72,182.84h0l-2.59-4.73c-3.37,6.83-24.87,8.5-34.29,2.95-5,11-2.36,20.36,1.13,25.91,2.53,4,5.39,6.52,15.56,12.25,9.47,5.34,17.95,9.81,20.12,11.05,1.63.95,1.2,4.63,1.56,9,.38,4.57.78,7.13,3,17,1.07,4.77,2.2,8.9,2.2,8.9s8,1.14,14.08-1.84c0,0-.17-24-.29-29.88-.1-5,.39-9.69-3.36-13.57-3.21-3.32-23.05-19.8-23.05-19.8S194.15,195.63,192.72,182.84Z" style="fill:#455a64"></path><path d="M157.79,186.38l.74.23c-1.44,7,.09,13,4.73,18,3.12-2,2.56-3.87,1.53-7.3-.31-1-.66-2.21-.95-3.53a34.65,34.65,0,0,1-.84-6.46l.57-.06a33.46,33.46,0,0,0,.82,6.41c.28,1.3.63,2.46.94,3.48,1,3.43,1.7,5.72-1.68,7.87a32.31,32.31,0,0,0,3.79,3.32c7,5.3,16.91,11.57,22.83,15.31,2.08,1.31,3.71,2.35,4.55,2.92,3.43,2.32,3.49,3.64,3.17,9.46-.28,5.11,2.69,22.27,4.26,29.3l-.58,0c-1.59-7.17-4.52-24.21-4.24-29.31.32-5.9.16-6.88-2.92-9-.84-.57-2.47-1.6-4.54-2.9-5.93-3.76-15.87-10-22.87-15.35C156.88,201,156.84,194.41,157.79,186.38Z" style="fill:#37474f"></path><path d="M156.15,179.86l-1.8,5.13s7.34,5.23,22.11,3.11c15.72-2.27,15-7.46,15-7.46l-1.44-4.15s-3.1,4.74-14,6A43.38,43.38,0,0,1,156.15,179.86Z" style="fill:#37474f"></path></g></g><g id="Seats"><g id="Seat"><path d="M273.78,266.83l11.53-.23,17.54-10.05a13.19,13.19,0,0,1,10.62-.51l21.26,9.59,14.57-.28v8.5h0c0,.95-.68,1.94-2.06,2.73l-38.17,22a9.33,9.33,0,0,1-9.81-.78l-23.71-19.24a4.25,4.25,0,0,1-1.74-3.26l0,0Z" style="fill:#37474f"></path><path d="M347.24,268.08l-38.17,22a9.33,9.33,0,0,1-9.81-.78L275.55,270.1c-2.56-2.08-2.31-5.09.55-6.73L302.85,248a13.11,13.11,0,0,1,10.62-.51L347,262.64C350,264,350.09,266.43,347.24,268.08Z" style="fill:#455a64"></path><path d="M273.77,266.84v8.49l0,0a4.22,4.22,0,0,0,1.74,3.26l23.71,19.24a8.66,8.66,0,0,0,4.63,1.77v-8.5a8.74,8.74,0,0,1-4.63-1.77L275.55,270.1A4.28,4.28,0,0,1,273.77,266.84Z" style="fill:#263238"></path><path d="M266.13,263.69a2.09,2.09,0,0,0,1.14,1.83l11.21,4.75h0a2,2,0,0,1-1.17-1.82l-4-44a5.88,5.88,0,0,1,2.8-5.1L299,206.14a3,3,0,0,1,2.57-.28h0l-11.12-4.71h0a2.93,2.93,0,0,0-2.64.25l-22.9,13.22a5.86,5.86,0,0,0-2.8,5.11Z" style="fill:#263238"></path><path d="M299,206.14l-22.9,13.22a5.9,5.9,0,0,0-2.8,5.11l4,44c.17,1.83,1.7,2.51,3.41,1.52l32.6-18.82a4.54,4.54,0,0,0,2.07-5l-12.25-38.5A2.7,2.7,0,0,0,299,206.14Z" style="fill:#37474f"></path><path d="M262.8,216.87,274,221.62a5.83,5.83,0,0,1,2.12-2.25L299,206.14a3,3,0,0,1,2.57-.28h0l-11.12-4.71h0a2.93,2.93,0,0,0-2.64.25l-22.9,13.22A5.9,5.9,0,0,0,262.8,216.87Z" style="fill:#455a64"></path><path d="M266.2,210.31c-.38-2.61-.94-6.53-1.57-10.92-1.12-7.86,3.39-17.36,10.09-21.23,3.08-1.77,6.07-2,8.52-1.06h0l8.52,3.64-2.7,5.94,1.38,9.64a5.52,5.52,0,0,1-2.63,5.1l-7.38,4.26-4.57,10.06-8.43-3.6h0A2.18,2.18,0,0,1,266.2,210.31Z" style="fill:#263238"></path><path d="M277,193.71l-11-4.65a21.52,21.52,0,0,1,8.73-10.9c3.08-1.77,6.07-2,8.52-1.06h0l8.52,3.64-2.7,5.94.27,1.89Z" style="fill:#455a64"></path><path d="M274.59,213.9c-.38-2.61-.94-6.53-1.57-10.92-1.12-7.86,3.4-17.36,10.09-21.23s13.05-.63,14.17,7.23l1.56,10.92a5.52,5.52,0,0,1-2.63,5.1l-18,10.42C276.45,216.41,274.85,215.73,274.59,213.9Z" style="fill:#37474f"></path><path d="M299.59,215.47A100.15,100.15,0,0,1,308.16,245a6.52,6.52,0,0,1-2.38,5.46A91.46,91.46,0,0,1,287.53,261a2.76,2.76,0,0,1-4-1.89c-2.32-11.86-4.12-22.94-4.72-32.2a7,7,0,0,1,2.6-5.45,71,71,0,0,1,13.32-7.69A3.78,3.78,0,0,1,299.59,215.47Z" style="fill:#455a64"></path><path d="M283.91,260.08a2.9,2.9,0,0,1-.42-1c-2.32-11.86-4.12-22.94-4.72-32.2a6.21,6.21,0,0,1,.66-3c1.12-1.72,3.61,12.31,4.83,20.87s2.31,17,.53,16.12l-.21-.13A5.83,5.83,0,0,1,283.91,260.08Z" style="opacity:0.15"></path><g style="opacity:0.15"><path d="M305.77,244.36s-.27.16-.73.47-1.12.72-1.9,1.23c-1.57,1-3.67,2.35-5.84,3.59s-4.4,2.41-6.1,3.26c-.86.43-1.56.8-2.07,1s-.78.41-.78.41l.9-.21c.56-.15,1.37-.35,2.31-.67a32.19,32.19,0,0,0,3.14-1.2c.54-.26,1.13-.5,1.69-.8s1.12-.59,1.69-.9c1.09-.65,2.17-1.33,3.11-2a29,29,0,0,0,2.47-2c.68-.62,1.2-1.19,1.56-1.56S305.77,244.36,305.77,244.36Z"></path><path d="M305,238.81s-.28.17-.73.47-1.12.73-1.91,1.24c-1.56,1-3.66,2.34-5.83,3.58s-4.4,2.41-6.11,3.26c-.85.43-1.55.81-2.06,1s-.79.4-.79.4l.9-.21c.56-.15,1.38-.34,2.32-.66s2-.72,3.13-1.2c.55-.26,1.14-.5,1.69-.8s1.13-.6,1.69-.91c1.1-.65,2.17-1.32,3.12-2a28.76,28.76,0,0,0,2.46-2c.69-.61,1.2-1.18,1.57-1.56S305,238.81,305,238.81Z"></path><path d="M303,234.28s-.26.15-.69.43-1,.66-1.76,1.13c-1.45.93-3.39,2.13-5.42,3.22s-4.13,2.11-5.72,2.88l-1.92.95-.72.37s.31,0,.83-.17,1.28-.3,2.16-.57,1.88-.61,2.93-1c.52-.22,1.07-.43,1.6-.69s1.06-.52,1.59-.79,1-.59,1.51-.9.95-.63,1.41-.93a25.56,25.56,0,0,0,2.27-1.86,20.31,20.31,0,0,0,1.43-1.46C302.81,234.5,303,234.28,303,234.28Z"></path><path d="M301.71,229.13s-.25.14-.67.41-1,.63-1.7,1.09c-1.41.9-3.28,2.05-5.26,3.08s-4,2-5.56,2.73l-1.86.91-.7.37s.3-.05.81-.17,1.24-.28,2.09-.53,1.83-.56,2.85-1c.51-.2,1.05-.4,1.56-.65s1-.49,1.55-.75,1-.55,1.48-.85.92-.61,1.36-.9a22.49,22.49,0,0,0,2.19-1.8c.61-.56,1.06-1.07,1.38-1.41Z"></path><path d="M300.08,224.24l-.63.37-1.61,1a55.61,55.61,0,0,1-5,2.86c-1.86.94-3.83,1.78-5.29,2.47s-2.41,1.21-2.41,1.21,1.13-.18,2.74-.62a30.67,30.67,0,0,0,5.68-2.1c.48-.26,1-.51,1.41-.79s.88-.57,1.29-.84a18.67,18.67,0,0,0,2.07-1.71A16,16,0,0,0,300.08,224.24Z"></path><path d="M297.26,219.57s-.82.47-2,1.2-2.7,1.65-4.31,2.49-3.29,1.63-4.53,2.26-2.06,1.11-2.06,1.11a21,21,0,0,0,2.4-.53,25.25,25.25,0,0,0,4.92-1.89c.41-.23.82-.46,1.22-.7s.76-.5,1.11-.75a16.2,16.2,0,0,0,1.78-1.51A12.31,12.31,0,0,0,297.26,219.57Z"></path></g><path d="M317.16,257.1c6,1.07,12,4.15,17.88,8.58a2.65,2.65,0,0,1,0,4.42,118.38,118.38,0,0,1-23,13.19,8.54,8.54,0,0,1-6.51-.17,57.33,57.33,0,0,1-13.74-9.81,3.06,3.06,0,0,1,.44-4.73,97.31,97.31,0,0,1,18-10.58A14.47,14.47,0,0,1,317.16,257.1Z" style="fill:#37474f"></path><g style="opacity:0.2"><path d="M331.82,267.9s-.38.1-1,.3-1.58.49-2.66.91a55.87,55.87,0,0,0-7.72,3.61,51.36,51.36,0,0,0-7.05,4.79,37.21,37.21,0,0,0-2.88,2.6l3.28-2c2-1.22,4.57-2.81,7.24-4.31s5.37-2.95,7.41-4l2.47-1.32Z"></path><path d="M326.08,264.6s-.37.09-1,.29-1.57.5-2.66.91a56,56,0,0,0-7.71,3.62,51.52,51.52,0,0,0-7.06,4.79,38.65,38.65,0,0,0-2.88,2.59l3.28-2c2-1.22,4.58-2.81,7.24-4.31s5.37-2.95,7.41-4l2.47-1.32Z"></path><path d="M321.15,261.79l-1,.3c-.64.21-1.57.5-2.66.91a56,56,0,0,0-7.71,3.62,51.52,51.52,0,0,0-7.06,4.79,38.65,38.65,0,0,0-2.88,2.59l3.28-2c2-1.22,4.58-2.81,7.24-4.31s5.37-3,7.41-4l2.47-1.31C320.82,262,321.15,261.79,321.15,261.79Z"></path><path d="M315.78,259.5s-.35.08-.94.26-1.45.44-2.45.82a49.68,49.68,0,0,0-7.09,3.3,46.29,46.29,0,0,0-6.47,4.42,33.5,33.5,0,0,0-2.63,2.4s.32-.18.84-.51l2.19-1.34c1.8-1.11,4.21-2.55,6.65-3.93s4.92-2.72,6.79-3.72l2.26-1.22Z"></path></g></g><g id="seat"><path d="M221.92,297.73l11.52-.22L251,287.46a13.13,13.13,0,0,1,10.63-.51l21.26,9.59,14.57-.29v8.51h0c0,1-.67,1.94-2.06,2.74l-38.17,22a9.31,9.31,0,0,1-9.8-.78l-23.71-19.24a4.24,4.24,0,0,1-1.75-3.26l0,0Z" style="fill:#37474f"></path><path d="M295.37,299,257.2,321a9.31,9.31,0,0,1-9.8-.78L223.69,301c-2.56-2.07-2.32-5.09.54-6.73L251,279a13.13,13.13,0,0,1,10.63-.51l33.49,15.11C298.11,294.9,298.23,297.34,295.37,299Z" style="fill:#455a64"></path><path d="M221.91,297.74v8.49l0,0a4.23,4.23,0,0,0,1.74,3.26l23.71,19.24a8.74,8.74,0,0,0,4.63,1.77V322a8.58,8.58,0,0,1-4.63-1.77L223.69,301A4.25,4.25,0,0,1,221.91,297.74Z" style="fill:#263238"></path><path d="M214.27,294.6a2.09,2.09,0,0,0,1.14,1.83l11.2,4.75h0a2,2,0,0,1-1.16-1.83l-4-44a5.89,5.89,0,0,1,2.8-5.11l22.91-13.22a3,3,0,0,1,2.57-.28h0L238.59,232h0a3,3,0,0,0-2.64.26l-22.89,13.22a5.86,5.86,0,0,0-2.8,5.1Z" style="fill:#263238"></path><path d="M247.14,237.05l-22.9,13.22a5.89,5.89,0,0,0-2.8,5.1l4,44c.17,1.83,1.69,2.51,3.41,1.52L261.46,282a4.55,4.55,0,0,0,2.07-5l-12.25-38.49A2.7,2.7,0,0,0,247.14,237.05Z" style="fill:#37474f"></path><path d="M210.94,247.78l11.18,4.74a5.9,5.9,0,0,1,2.12-2.25l22.91-13.22a3,3,0,0,1,2.57-.28h0L238.59,232h0a3,3,0,0,0-2.64.26l-22.89,13.22A5.9,5.9,0,0,0,210.94,247.78Z" style="fill:#455a64"></path><path d="M214.33,241.22c-.37-2.61-.93-6.53-1.56-10.92-1.13-7.86,3.39-17.36,10.09-21.23,3.07-1.78,6.06-2,8.52-1.06v0l8.52,3.64-2.7,6,1.38,9.63a5.53,5.53,0,0,1-2.63,5.1l-7.38,4.27L224,246.64,215.58,243h0A2.18,2.18,0,0,1,214.33,241.22Z" style="fill:#263238"></path><path d="M225.09,224.62l-11-4.65a21.43,21.43,0,0,1,8.73-10.9c3.07-1.78,6.06-2,8.52-1.06v0l8.52,3.64-2.7,6,.27,1.89Z" style="fill:#455a64"></path><path d="M222.72,244.81c-.37-2.61-.93-6.53-1.56-10.92-1.12-7.86,3.39-17.36,10.09-21.23s13-.63,14.17,7.23L247,230.8a5.53,5.53,0,0,1-2.63,5.1l-18,10.43C224.59,247.32,223,246.64,222.72,244.81Z" style="fill:#37474f"></path><path d="M247.73,246.37a100.63,100.63,0,0,1,8.57,29.52,6.57,6.57,0,0,1-2.38,5.47,91.43,91.43,0,0,1-18.25,10.51,2.76,2.76,0,0,1-4-1.88c-2.32-11.87-4.12-22.94-4.73-32.2a7,7,0,0,1,2.61-5.45,71.52,71.52,0,0,1,13.31-7.7A3.8,3.8,0,0,1,247.73,246.37Z" style="fill:#455a64"></path><path d="M232,291a2.66,2.66,0,0,1-.41-1c-2.32-11.87-4.12-22.94-4.73-32.2a6.31,6.31,0,0,1,.66-3c1.13-1.72,3.62,12.3,4.84,20.87s2.3,17,.53,16.12l-.21-.13A4.74,4.74,0,0,1,232,291Z" style="opacity:0.15"></path><g style="opacity:0.15"><path d="M253.91,275.27s-.28.16-.73.46-1.12.73-1.91,1.24c-1.56,1-3.66,2.35-5.83,3.59s-4.4,2.4-6.11,3.26c-.85.42-1.55.8-2.06,1l-.79.4s.33-.06.9-.2,1.38-.35,2.32-.67,2-.72,3.13-1.2c.55-.26,1.14-.5,1.69-.8s1.13-.6,1.69-.9c1.1-.65,2.17-1.33,3.12-2a28.76,28.76,0,0,0,2.46-2c.69-.61,1.2-1.18,1.57-1.56S253.91,275.27,253.91,275.27Z"></path><path d="M253.11,269.72s-.27.16-.73.47-1.12.72-1.9,1.24c-1.56,1-3.67,2.34-5.83,3.58s-4.4,2.41-6.11,3.26c-.85.43-1.56.8-2.07,1s-.78.41-.78.41l.9-.21c.56-.15,1.38-.35,2.31-.66s2-.72,3.14-1.21c.55-.26,1.13-.5,1.69-.8s1.13-.59,1.69-.9c1.1-.65,2.17-1.33,3.12-2a28.76,28.76,0,0,0,2.46-2c.69-.62,1.2-1.18,1.57-1.56S253.11,269.72,253.11,269.72Z"></path><path d="M251.12,265.19l-.68.42c-.42.29-1,.66-1.76,1.13-1.45.94-3.39,2.14-5.43,3.23s-4.13,2.1-5.72,2.87l-1.91,1c-.47.23-.72.38-.72.38s.3-.05.83-.18,1.28-.3,2.15-.57a30.71,30.71,0,0,0,2.94-1c.52-.22,1.07-.43,1.59-.69s1.07-.52,1.59-.8,1-.58,1.52-.89.95-.63,1.4-.94a24.44,24.44,0,0,0,2.28-1.85c.62-.58,1.09-1.1,1.42-1.46S251.12,265.19,251.12,265.19Z"></path><path d="M249.84,260s-.25.14-.66.41-1,.63-1.71,1.08c-1.4.9-3.28,2.06-5.25,3.09s-4,2-5.57,2.72l-1.85.92c-.45.22-.7.37-.7.37l.81-.17c.5-.13,1.24-.28,2.09-.53s1.83-.57,2.85-1c.51-.21,1-.4,1.55-.65l1.56-.75c.5-.28,1-.56,1.47-.85s.93-.61,1.37-.91A19.92,19.92,0,0,0,248,262a16.71,16.71,0,0,0,1.37-1.41C249.68,260.25,249.84,260,249.84,260Z"></path><path d="M248.22,255.14l-.63.38-1.62,1a56.35,56.35,0,0,1-5,2.86c-1.87.94-3.84,1.78-5.3,2.47s-2.4,1.21-2.4,1.21,1.13-.19,2.74-.62a30.93,30.93,0,0,0,5.68-2.1c.48-.26,1-.52,1.41-.79s.88-.57,1.29-.85a18.49,18.49,0,0,0,2.06-1.7A16.15,16.15,0,0,0,248.22,255.14Z"></path><path d="M245.4,250.48s-.83.47-2,1.2-2.7,1.65-4.32,2.48-3.28,1.64-4.53,2.27-2.06,1.1-2.06,1.1a19.42,19.42,0,0,0,2.41-.52,25.33,25.33,0,0,0,4.92-1.9c.41-.23.82-.45,1.21-.7s.76-.5,1.12-.75a13.44,13.44,0,0,0,1.77-1.51A12.56,12.56,0,0,0,245.4,250.48Z"></path></g><path d="M265.29,288c6,1.08,12,4.15,17.89,8.59a2.65,2.65,0,0,1,0,4.42,118.29,118.29,0,0,1-23,13.19,8.54,8.54,0,0,1-6.51-.18,56.91,56.91,0,0,1-13.74-9.8,3.06,3.06,0,0,1,.44-4.74,96.85,96.85,0,0,1,18-10.57A14.39,14.39,0,0,1,265.29,288Z" style="fill:#37474f"></path><g style="opacity:0.2"><path d="M280,298.8s-.38.1-1,.3-1.57.5-2.65.91a56,56,0,0,0-7.72,3.62,51.36,51.36,0,0,0-7.05,4.79c-1.8,1.48-2.89,2.59-2.89,2.59l3.28-2c2-1.22,4.58-2.81,7.25-4.31s5.37-3,7.41-4l2.46-1.32C279.62,299,280,298.8,280,298.8Z"></path><path d="M274.22,295.5l-1,.3c-.64.21-1.58.49-2.66.91a56.58,56.58,0,0,0-7.72,3.62,52,52,0,0,0-7,4.79,38.65,38.65,0,0,0-2.88,2.59l3.28-2c1.95-1.22,4.57-2.8,7.24-4.31s5.37-2.95,7.41-4l2.47-1.32C273.89,295.7,274.22,295.5,274.22,295.5Z"></path><path d="M269.29,292.7s-.38.1-1,.3-1.58.49-2.66.91a56.58,56.58,0,0,0-7.72,3.62,50.48,50.48,0,0,0-7,4.79,36.11,36.11,0,0,0-2.88,2.59l3.28-2c1.95-1.22,4.57-2.8,7.24-4.31s5.37-2.95,7.41-4l2.47-1.32C269,292.9,269.29,292.7,269.29,292.7Z"></path><path d="M263.92,290.4l-.95.27c-.59.19-1.45.44-2.44.82a48.67,48.67,0,0,0-7.1,3.3A45.31,45.31,0,0,0,247,299.2a32.33,32.33,0,0,0-2.63,2.41l.84-.51,2.19-1.34c1.8-1.11,4.21-2.56,6.65-3.93s4.92-2.72,6.79-3.72l2.25-1.23C263.61,290.59,263.92,290.4,263.92,290.4Z"></path></g></g></g><g id="character"><path d="M267.73,276.62c-.93-3.32-1.83-3.13,1.24-4.69,4.09-2.07,8.31-4.1,9-3.17a26.06,26.06,0,0,1,2.36,6.7c.31,1.72-5.87,3.09-8.51,3.56C268.05,279.71,268.29,278.66,267.73,276.62Z" style="fill:#BA68C8"></path><g id="character"><g id="bottom"><path d="M331,309.36s-4.16,9-4.51,12.6-1.34,5-.88,9.09c.1.89.48,2.7.57,3.43a1.07,1.07,0,0,1-1,1.29c-1.65.27-4.22-2.92-5.36-6.32A101.2,101.2,0,0,1,317,317.53a5.17,5.17,0,0,1,.64-2.62,8.88,8.88,0,0,1,.81-1.33c.62-1.61,1-4.71,1.57-6.85Z" style="fill:#ffbda7"></path><path d="M313.68,320.81a4.07,4.07,0,0,0-.49,1.22c-.07.75,1.51,3.3,2.14,4.23a6.08,6.08,0,0,1,1,4.34,10.4,10.4,0,0,0,2.21,6.81,16.55,16.55,0,0,0,8,5.75c3.91,1.4,5.4-.53,5.4-.53s1.31-1.86.61-2.67S313.68,320.81,313.68,320.81Z" style="fill:#263238"></path><path d="M318.48,313.58c-.12,0-.33-.05-.66.31-.12.14-.92,1.89-1.57,2.8s-2.3,2.61-2.57,4.12c.79,3,3.45,5.16,3.74,7.95s.19,6,4.3,9.61,8.49,4.14,10.1,3.31,1.55-2.52-.5-5.84c-2.18-3.52-3.41-11-3.41-11a23.92,23.92,0,0,1-.27-3.16,20.45,20.45,0,0,1,.43-3.1,1.78,1.78,0,0,0-1.27-2.29,10.51,10.51,0,0,0-2.16-.84,3.53,3.53,0,0,0-2.27.17,16.07,16.07,0,0,1-1.45.84,2,2,0,0,1-2.08-.47,1.76,1.76,0,0,1-.48-1.95S318.48,313.58,318.48,313.58Z" style="fill:#455a64"></path><path d="M319.35,335.53a6.82,6.82,0,0,1,6.34-3.06c4.53.22,6,2.6,6.62,4,.75,1.65,1.47,4.61-.44,5.37-2.06.81-4.39.43-8-1.58A9.86,9.86,0,0,1,319.35,335.53Z" style="fill:#fafafa"></path><path d="M320.8,321.93a.45.45,0,0,0,.41,0c.72-.32,4.45-.93,6.52,1.17.29-.21.25-.62-.08-1.22a8.31,8.31,0,0,0-6.85-.76.43.43,0,0,0-.21.59A.53.53,0,0,0,320.8,321.93Z" style="fill:#fafafa"></path><path d="M328.08,325.77a1.41,1.41,0,0,0-.21-1.25,8.42,8.42,0,0,0-6.54-.56.43.43,0,0,0-.21.59.53.53,0,0,0,.21.21.49.49,0,0,0,.41,0C322.44,324.46,326,323.89,328.08,325.77Z" style="fill:#fafafa"></path><path d="M329.65,332a2.58,2.58,0,0,0-.51-1.67,8.41,8.41,0,0,0-6.75-.7.44.44,0,0,0-.21.6.5.5,0,0,0,.62.22C323.56,330.09,327.68,329.43,329.65,332Z" style="fill:#fafafa"></path><path d="M321.86,327.58a.46.46,0,0,0,.41,0c.71-.32,4.37-.91,6.45,1.1a1.58,1.58,0,0,0-.32-1.36,8.52,8.52,0,0,0-6.54-.56.44.44,0,0,0-.21.6A.45.45,0,0,0,321.86,327.58Z" style="fill:#fafafa"></path><path d="M333.6,321.27s1.62,10.92,3.36,16a27,27,0,0,0,5.21,9.89c.59.75,1.95,2.15,2.43,2.76a1.12,1.12,0,0,1-.2,1.73c-1.33,1.16-6.74,1.2-9.67-1.2s-5.46-7.37-7.18-9.28a26,26,0,0,1-1.83-2.22c-.55-.74-.36-1.42-.38-2.22,0-.39.1-1.45.1-1.45-.33-1.92-1.31-4.95-1.83-6.83Z" style="fill:#ffbda7"></path><path d="M324,343.8a4.1,4.1,0,0,0,.07,1.38c.27.75,2.94,2.47,3.95,3.08a6.33,6.33,0,0,1,2.94,3.68,11.05,11.05,0,0,0,5.19,5.51,17.56,17.56,0,0,0,10.21,1.9c4.37-.43,4.92-2.94,4.92-2.94s.42-2.37-.62-2.83S324,343.8,324,343.8Z" style="fill:#263238"></path><path d="M325.31,334.72c-.12,0-.34.1-.49.59-.06.19,0,2.22-.24,3.38s-1,3.54-.59,5.11c2.09,2.49,5.62,3.36,7.15,5.9s2.9,5.67,8.45,7.25,10,.13,11.15-1.39.34-3.12-3.12-5.36c-3.67-2.38-8.22-9-8.22-9a24.69,24.69,0,0,1-1.68-2.91,21,21,0,0,1-1-3.15,1.87,1.87,0,0,0-2.24-1.61,10.44,10.44,0,0,0-2.44.17,3.69,3.69,0,0,0-2.1,1.18,16.46,16.46,0,0,1-1,1.46,2.14,2.14,0,0,1-2.19.49,1.84,1.84,0,0,1-1.34-1.65A4.91,4.91,0,0,1,325.31,334.72Z" style="fill:#455a64"></path><path d="M336.05,355.3a7.18,7.18,0,0,1,4.67-5.78c4.43-1.83,6.9-.22,8.12.82,1.46,1.24,3.49,3.75,2,5.33s-4,2.39-8.35,2.09A10.34,10.34,0,0,1,336.05,355.3Z" style="fill:#fafafa"></path><path d="M331.29,341.65a.48.48,0,0,0,.4-.17c.54-.63,3.83-2.9,6.76-1.83.18-.33-.05-.7-.63-1.12a8.73,8.73,0,0,0-6.89,2.36.44.44,0,0,0,.07.65A.48.48,0,0,0,331.29,341.65Z" style="fill:#fafafa"></path><path d="M340,342a1.5,1.5,0,0,0-.77-1.11,9,9,0,0,0-6.5,2.42.46.46,0,0,0,.07.66.53.53,0,0,0,.29.1.48.48,0,0,0,.4-.17C334,343.33,337.12,341.18,340,342Z" style="fill:#fafafa"></path><path d="M344.28,347.26A2.74,2.74,0,0,0,343,345.9a8.83,8.83,0,0,0-6.77,2.38.46.46,0,0,0,.08.66.48.48,0,0,0,.28.1.5.5,0,0,0,.41-.17C337.61,348.2,341.25,345.72,344.28,347.26Z" style="fill:#fafafa"></path><path d="M334.85,346.58a.51.51,0,0,0,.41-.17c.53-.63,3.76-2.84,6.65-1.86a1.65,1.65,0,0,0-.91-1.15,9,9,0,0,0-6.51,2.41.46.46,0,0,0,.08.66A.49.49,0,0,0,334.85,346.58Z" style="fill:#fafafa"></path><path d="M312,251.62c4.8,3.86,20.09,15.09,26.81,21.9,1.94,2,3.68,5.76,2.14,10.94-2.49,8.39-10.39,26.14-10.39,26.14a18.22,18.22,0,0,1-11.1-3.46L304.75,277.9Z" style="fill:#455a64"></path><path d="M331.83,307.45c-6.09-5.58-25.09-38.79-25.09-38.79l.87-.14a18.81,18.81,0,0,0,7.07-8.21,12.17,12.17,0,0,1-3.25,8.57c1.55,1.47,9,8.41,15.08,13.7a9,9,0,0,1,3.49,5.83C331,295.31,332.05,306.07,331.83,307.45Z" style="fill:#263238"></path><path d="M310.45,252.1h0l-29.55,4.26c-1.27,5.78-1.7,13.9,0,17.39s5,8.69,9.35,11.15c9.67,5.51,20,10.28,22.08,11.41,1.59.84,1.85,1.69,1.8,6.62,0,4.49,1.19,8.05,5.14,17.52,3.86,9.27,4.65,11.27,4.65,11.27s6.69.84,11.26-2.83c0,0-4.69-31.25-5.71-36.91-.57-3.16-.51-4.81-4.24-8.43-3.2-3.1-17.57-15-17.57-15S313.88,260.85,310.45,252.1Z" style="fill:#455a64"></path></g><g id="top"><path d="M304.51,212.76c2.33.47,6.51,1,8.93,4.54s12.19,18.2,12.19,18.2l19.13,6.74-2.06,8.61s-14.47-1.69-18.91-2.89c-3.7-1-5.51-1.58-8.37-5.34s-10.67-15.42-10.67-15.42Z" style="fill:#BA68C8"></path><path d="M280.16,258.41c1.86-7.81,2.37-11.07,2.2-13.48,0,0-3.35-11.84-3.94-14.66-1.53-7.31-.54-10.91.87-11.84a53,53,0,0,1,5.33-2.35c5-2,12.3-2.86,17.07-3.25,1.8-.08,2.36-.07,2.36-.07a43.54,43.54,0,0,1,7,5.23c4.22,4,5.69,6.87,5.53,11.45a10.9,10.9,0,0,1-2,5.57c-.08,2.21.05,8.46.05,8.46.29,2.43.12,2.39,1.92,8.14C313.8,263.55,288.62,264.08,280.16,258.41Z" style="fill:#fafafa"></path><g id="head"><path d="M307.62,194c3.24-1.74,3-7,1.51-9.22-2.54-3.8-7.57-6.42-14.48-5.93-4.35.31-9.21,2.11-10.39,6.49-4.18,1.7-3.22,7.4-2.34,9.83,1.84,5.12,4.71,9.24,4.55,11.86Z" style="fill:#263238"></path><path d="M284.26,185.34c-2.89-.75-3.63,6.06-3.86,7.43a20.86,20.86,0,0,1-5.49,11,11.14,11.14,0,0,0,2.74,2.85c1.32-1.31,3-3,4.23-4.47a15,15,0,0,1-2.37,4.73.83.83,0,0,0-.25.56.85.85,0,0,0,.22.43,11.47,11.47,0,0,0,5,3.16,19.44,19.44,0,0,0,6.27,1.26c5.25.2,11.41-.5,14.09-5.62,1.49-2.87,1.66-6.15,1.52-9.31-.08-1.53-.31-3.07-.47-4.6a10,10,0,0,0-.2-1.82Z" style="fill:#263238"></path><path d="M304.57,186.07c1.1.56,2.53,2.43,2.68,6.34,0,1.18.52,2.6.75,4.79.86,8.3-1.26,10.27-3.4,11.48a8.31,8.31,0,0,1-4.15,1.09l.09,4.11A29.73,29.73,0,0,1,303,223c-11.74-3.46-14.32-9-14.32-9l.06-9.15a3.35,3.35,0,0,1-4.29.46c-2.24-1.27-3.36-4.88-2.06-6.79a2.91,2.91,0,0,1,4.8,0c1.1,1.46,2.9,1.32,2-1,1-.61,3.2-1.87,1.78-6.1a4.83,4.83,0,0,1,.83-4.09c1.59-1.74,5-1.79,7.11,0A4.43,4.43,0,0,1,304.57,186.07Z" style="fill:#ffbda7"></path><polygon points="300.19 193.48 301.88 200.6 305.35 198.49 300.19 193.48" style="fill:#f0997a"></polygon><path d="M300.45,209.77c-2.68.13-8.52-.74-10.27-4.13,0,0,.47,2.5,3.94,4.12a17.52,17.52,0,0,0,6.36,1.26Z" style="fill:#f0997a"></path><path d="M297.93,195.48a1.18,1.18,0,1,1-1.19-1.17A1.18,1.18,0,0,1,297.93,195.48Z" style="fill:#263238"></path><path d="M305.9,194.82a1.18,1.18,0,1,1-1-1.32A1.18,1.18,0,0,1,305.9,194.82Z" style="fill:#263238"></path><path d="M305.72,190.18a1.57,1.57,0,0,0-2.06.84l2.9,1.21A1.56,1.56,0,0,0,305.72,190.18Z" style="fill:#263238"></path><path d="M294.52,190.88A1.57,1.57,0,0,0,294,193l2.7-1.61A1.56,1.56,0,0,0,294.52,190.88Z" style="fill:#263238"></path><path d="M299.43,203.78a1.94,1.94,0,0,0,2.37-1.41l-3.77-1A1.94,1.94,0,0,0,299.43,203.78Z" style="fill:#b16668"></path><path d="M298,202a1.93,1.93,0,0,0,2.67,1.65A3.31,3.31,0,0,0,298,202Z" style="fill:#f28f8f"></path></g><path d="M288.7,213s.89,1.82,2.24,5,1.2,5.3,2.09,12.34,1.53,40.29,3.07,48.21c-5.25.51-14.41-2.92-18.73-6.77.18-3,.87-6.53,2.05-13.85s2-11,1.2-14.79-8.66-13.5-3.41-24.46c0,0,2.26-1.11,5.64-2.72C286.64,214.14,288.7,213,288.7,213Z" style="fill:#BA68C8"></path><path d="M288.7,213s.89,1.82,2.24,5,1.2,5.3,2.09,12.34,1.53,40.29,3.07,48.21c-5.25.51-14.41-2.92-18.73-6.77.18-3,.87-6.53,2.05-13.85s2-11,1.2-14.79-8.66-13.5-3.41-24.46c0,0,2.26-1.11,5.64-2.72C286.64,214.14,288.7,213,288.7,213Z" style="fill:#fff;opacity:0.4"></path><path d="M300.5,212l0,.89a82.35,82.35,0,0,1,7.48,8.47c3.39,4.49,4.31,9.09,4.7,15.21.21,3.22,1.4,10.87,2.59,18,1.28,1,3.1,2.09,4.76,3.28a61,61,0,0,0-2.3-6.74c-.74-2.15-1.05-5.75-1.49-10.26a41.31,41.31,0,0,1-.21-5.89s2.54-3.86.2-10.35-12.07-12.06-12.07-12.06a17.88,17.88,0,0,0-1.82-.26C301.22,212.16,300.5,212,300.5,212Z" style="fill:#BA68C8"></path><path d="M300.5,212l0,.89a82.35,82.35,0,0,1,7.48,8.47c3.39,4.49,4.31,9.09,4.7,15.21.21,3.22,1.4,10.87,2.59,18,1.28,1,3.1,2.09,4.76,3.28a61,61,0,0,0-2.3-6.74c-.74-2.15-1.05-5.75-1.49-10.26a41.31,41.31,0,0,1-.21-5.89s2.54-3.86.2-10.35-12.07-12.06-12.07-12.06a17.88,17.88,0,0,0-1.82-.26C301.22,212.16,300.5,212,300.5,212Z" style="fill:#fff;opacity:0.4"></path></g></g><path d="M303.91,212.26c2.19,10.72,3.82,42.85-27.51,57.68l2.21,5.5s19.47-3.14,30-9.22S320,252.79,320,252.79L317.16,250s-3.85,12.7-31.33,19.42c14.94-8.63,27.81-29,22.08-56.67Z"></path><path d="M332.83,232c-8.67,4.32-16.7,15.91-17.92,25.88s4.81,14.57,13.49,10.25,16.69-15.91,17.92-25.89S341.5,227.63,332.83,232Zm5.64,2.15c.34,2.86,2.06,4.5,4.61,4.37v0c.43,1.47-.88,4-2.58,5-.78.47-1.64,1-2.58,1.49-.37.21-.64,0-.57-.41a2.26,2.26,0,0,0-.05-1.14c-.43-1-2.31-.79-6,1.06s-5.77,3.56-6.54,5.19a4.2,4.2,0,0,0-.35,1.34,1.48,1.48,0,0,1-.75,1.08c-.93.41-1.77.76-2.53,1.05-1.65.64-2.47-.83-1.6-2.93v0a23.12,23.12,0,0,0,6.36-9.84,23.82,23.82,0,0,1,6.52-5A10.12,10.12,0,0,1,338.47,234.1Zm-19,23.85c1.41-.89,3.17-1.92,5.29-3,.3-.16.56-.13.7.06l.19.24a3.64,3.64,0,0,0,2.35,1.41c.2,0,.31.23.26.53q-.33,2-.66,3.57c-.59,2.8-3.36,5.55-5.19,5.14-2.28-.52-3.87-2.28-4.45-5A3.31,3.31,0,0,1,319.47,258Zm11.75,1c0-1,.09-2.07.19-3.33a1.53,1.53,0,0,1,.43-.87,22.6,22.6,0,0,0,3-4.09l.28-.47a2,2,0,0,1,.81-.81c2.1-1,3.82-1.68,5.18-2.17.92-.34,1.39.46.95,1.64a32.89,32.89,0,0,1-6.34,10.41C333.57,261.62,331.15,261.46,331.22,258.91Z" style="fill:#37474f"></path><path d="M329.85,256.25c-1.61.8-3,.35-4.2-1a5.62,5.62,0,0,1-.9-5.5c.77-1.63,2.83-3.35,6.54-5.19s5.59-2.09,6-1.06-.73,4.31-2.45,7.16S331.45,255.45,329.85,256.25Z" style="fill:#455a64"></path><path d="M304.54,253.62c1.63.5,3.41,1.24,4.55,1.48a5.61,5.61,0,0,0,3.87-.24,7.13,7.13,0,0,1,2.61-.44,27.51,27.51,0,0,0-.56,2.7,2.46,2.46,0,0,0,2.08,1.4,4,4,0,0,0,2.53-.66c.67-.42,2.71-2.08,3.36-1.62a2.43,2.43,0,0,1,.63,2.76,5,5,0,0,0-.36.82c-.09.35,0,.72-.1,1.07a2.51,2.51,0,0,1-.78,1.11,31.88,31.88,0,0,1-3.18,2.6,10.73,10.73,0,0,1-2.83,1.56c-2.52.85-4.89.26-7.2-.66-1.34-.54-2.27-.89-3.51-1.33s-4.3-1.17-4.3-1.17S304.53,253.61,304.54,253.62Z" style="fill:#ffbda7"></path><path d="M277.21,218.66c-7.32,4.31-5.7,10.83-3.43,19.58,2.54,9.79,3.77,14.12,4.8,16.85,1.19,3.16,1.29,4.23,5.92,5.22,7.25,1.54,17.74,3.56,17.74,3.56,2.67-2.21,5.27-6.23,4.15-9.91l-16.74-5.41-3.41-14.43S283.54,221.34,277.21,218.66Z" style="fill:#BA68C8"></path><path d="M349,244.24a5.08,5.08,0,0,0-.83-.84c-.15-.12-1.83-1.29-1.84-1.27a28.4,28.4,0,0,1-1,4.63,3.65,3.65,0,0,1-1.95,1.1c-.27.07-.92.25-1.13.07,0-.59-.3-.79-.64-.84a4.37,4.37,0,0,0-.8.75,2.11,2.11,0,0,0-.49.71,1,1,0,0,0,0,.48,6,6,0,0,0,.24.83.83.83,0,0,0-.61.63,1.44,1.44,0,0,0,.12.91,1.12,1.12,0,0,1,.15.49,1,1,0,0,1-.05.24,1.13,1.13,0,0,0,0,.79,2,2,0,0,0,.63.51,3.51,3.51,0,0,0,1.57.68,4.67,4.67,0,0,0,1.53-.16c.56-.12,1.12-.24,1.67-.39a4.47,4.47,0,0,0,1.51-.58,4.75,4.75,0,0,0,1.25-1.5,7.43,7.43,0,0,0,.43-.9,11.31,11.31,0,0,0,.8-4.23,4.59,4.59,0,0,0-.18-1.33A2.49,2.49,0,0,0,349,244.24Z" style="fill:#ffbda7"></path></g><g id="character"><g id="character"><g id="bottom"><path d="M280.32,333.28s-4.52,9-5.14,12.62-1.75,5-1.57,9.16c0,.92.3,2.78.34,3.52s-.28,1.16-1.16,1.25c-1.73.16-4.16-3.25-5.1-6.77a98,98,0,0,1-1.94-12.27,5.15,5.15,0,0,1,.85-2.61,8.46,8.46,0,0,1,.93-1.3c.76-1.6,1.4-4.72,2.12-6.85Z" style="fill:#c8856a"></path><path d="M262,343.9a3.94,3.94,0,0,0-.6,1.2c-.13.76,1.33,3.45,1.91,4.43a6,6,0,0,1,.75,4.47,10.42,10.42,0,0,0,1.81,7.06,16.93,16.93,0,0,0,7.84,6.35c3.95,1.68,5.63-.18,5.63-.18s1.5-1.79.83-2.67S262,343.9,262,343.9Z" style="fill:#263238"></path><path d="M267.53,336.88c-.12,0-.34-.08-.7.27-.14.13-1.1,1.85-1.83,2.73s-2.57,2.5-3,4c.6,3.08,3.2,5.45,3.3,8.31s-.24,6.12,3.77,10,8.49,4.76,10.22,4,1.79-2.46-.1-6c-2-3.71-2.74-11.37-2.74-11.37a23.22,23.22,0,0,1-.05-3.23,20.2,20.2,0,0,1,.67-3.12,2.25,2.25,0,0,0,0-1.45,2.47,2.47,0,0,0-1.11-.95,11,11,0,0,0-2.18-1,3.67,3.67,0,0,0-2.36,0,16.18,16.18,0,0,1-1.57.76,2.12,2.12,0,0,1-2.12-.62,1.72,1.72,0,0,1-.35-2A3.53,3.53,0,0,1,267.53,336.88Z" style="fill:#37474f"></path><path d="M266.85,359.21a7.17,7.17,0,0,1,6.79-2.7c4.68.53,6,3,6.57,4.48.66,1.73,1.19,4.78-.84,5.42-2.19.69-4.58.15-8.16-2.13A9.93,9.93,0,0,1,266.85,359.21Z" style="fill:#fafafa"></path><path d="M269.33,345.5a.53.53,0,0,0,.43,0c.76-.28,4.68-.65,6.67,1.61.31-.19.3-.61,0-1.24a8.79,8.79,0,0,0-7-1.23.43.43,0,0,0-.25.59A.54.54,0,0,0,269.33,345.5Z" style="fill:#fafafa"></path><path d="M276.6,349.87a1.39,1.39,0,0,0-.13-1.28,8.92,8.92,0,0,0-6.74-1,.44.44,0,0,0-.25.59.47.47,0,0,0,.2.22.48.48,0,0,0,.42.05C270.85,348.17,274.56,347.82,276.6,349.87Z" style="fill:#fafafa"></path><path d="M277.78,356.27a2.6,2.6,0,0,0-.41-1.72,8.79,8.79,0,0,0-6.94-1.15.44.44,0,0,0-.26.59.47.47,0,0,0,.2.22.45.45,0,0,0,.42,0C271.6,354,275.92,353.56,277.78,356.27Z" style="fill:#fafafa"></path><path d="M270,351.31a.53.53,0,0,0,.43,0c.76-.28,4.59-.64,6.6,1.54a1.61,1.61,0,0,0-.23-1.4,9,9,0,0,0-6.74-1,.43.43,0,0,0-.25.59A.54.54,0,0,0,270,351.31Z" style="fill:#fafafa"></path><path d="M283.89,346.53s.83,8.66,1.52,15.35c.51,4.87,4.29,6.9,7.48,10,.7.67,2.26,1.89,2.83,2.43a1.13,1.13,0,0,1,0,1.76c-1.21,1.34-6.73,2.11-10,.09s-6.48-6.63-8.47-8.31a28.53,28.53,0,0,1-2.14-2c-.65-.67-.54-1.37-.66-2.17-.05-.39-.08-1.47-.08-1.47-.57-1.87-2.29-7.61-3-9.41Z" style="fill:#c8856a"></path><path d="M273.94,370.89a3.91,3.91,0,0,0,.25,1.37c.36.72,3.29,2.08,4.4,2.55a6.43,6.43,0,0,1,3.46,3.29,11,11,0,0,0,6,4.81,18.13,18.13,0,0,0,10.64.54c4.4-1,4.66-3.6,4.66-3.6s.13-2.42-1-2.75S273.94,370.89,273.94,370.89Z" style="fill:#263238"></path><path d="M274.17,361.64c-.12.07-.34.15-.43.66,0,.19.24,2.23.17,3.41s-.6,3.67,0,5.18c2.44,2.22,6.14,2.62,8,4.95s3.65,5.28,9.5,6.11,10.19-1.21,11.19-2.88,0-3.16-3.83-4.94c-4-1.89-9.49-7.85-9.49-7.86a24.22,24.22,0,0,1-2.08-2.67,21.34,21.34,0,0,1-1.39-3,2.5,2.5,0,0,0-.95-1.19,2.67,2.67,0,0,0-1.54-.12,11.4,11.4,0,0,0-2.47.5,3.83,3.83,0,0,0-2,1.47,16,16,0,0,1-.85,1.58,2.24,2.24,0,0,1-2.18.79,1.84,1.84,0,0,1-1.57-1.47S274.17,361.64,274.17,361.64Z" style="fill:#37474f"></path><path d="M287.66,380.78a7.29,7.29,0,0,1,4-6.4c4.29-2.43,7-1.15,8.39-.27,1.64,1.05,4,3.28,2.7,5.06s-3.78,2.92-8.25,3.2A10.68,10.68,0,0,1,287.66,380.78Z" style="fill:#fafafa"></path><path d="M281.11,367.77a.49.49,0,0,0,.39-.22c.47-.71,3.56-3.41,6.67-2.73.14-.36-.13-.7-.78-1a9.21,9.21,0,0,0-6.74,3.27.45.45,0,0,0,.16.65A.46.46,0,0,0,281.11,367.77Z" style="fill:#fafafa"></path><path d="M290,367a1.5,1.5,0,0,0-.91-1,9.41,9.41,0,0,0-6.34,3.29.47.47,0,0,0,.16.65.67.67,0,0,0,.31.07.57.57,0,0,0,.39-.23C284.08,369.09,287,366.52,290,367Z" style="fill:#fafafa"></path><path d="M295.05,371.64a2.75,2.75,0,0,0-1.43-1.2,9.3,9.3,0,0,0-6.6,3.29.45.45,0,0,0,.16.65.52.52,0,0,0,.3.06.51.51,0,0,0,.39-.22C288.37,373.48,291.77,370.51,295.05,371.64Z" style="fill:#fafafa"></path><path d="M285.36,372.22a.52.52,0,0,0,.39-.22c.46-.7,3.48-3.35,6.56-2.75a1.7,1.7,0,0,0-1.08-1,9.35,9.35,0,0,0-6.33,3.28.45.45,0,0,0,.15.65A.49.49,0,0,0,285.36,372.22Z" style="fill:#fafafa"></path><path d="M257.88,281.53s20.9,8.83,29.76,17.18c3.17,3,5.18,5.65,2.39,13.91-2.15,6.36-6,13.44-9.56,21.71L241.08,292Z" style="fill:#37474f"></path><path d="M257.88,281.53s20.9,8.83,29.76,17.18c3.17,3,5.18,5.65,2.39,13.91-2.15,6.36-6,13.44-9.56,21.71L241.08,292Z" style="fill:#37474f"></path><path d="M280.94,333.21c-6-5-25.7-34.24-25.7-34.24l.82-.17c4.41-2.18,6-8.37,6-8.37a10.48,10.48,0,0,1-1.6,7.87c2.63,1.74,8.58,5.7,17.72,11.91,1.59,1.08,4.8,3.12,4.8,7.43,0,5.62.09,11.14.09,11.14Z" style="fill:#263238"></path><path d="M257.9,281.53h0l-37.53,7.57c.92,4.44,1.6,11.21,5.17,16,5,6.69,8.13,8.82,17.51,12.12s18.32,6,20.38,7c1.55.74,1.42,4.14,2.07,8.11.67,4.16,1.22,6.47,3.93,15.29,1.32,4.29,2.64,8,2.64,8s7.35.47,12.65-2.69c0,0-1.9-21.94-2.43-27.31-.45-4.6-.35-8.9-4-12.17-3.15-2.8-22.2-14.64-22.2-14.64S261.43,289.62,257.9,281.53Z" style="fill:#37474f"></path><path d="M228.29,288.08l.51-.1c.48,6,1.53,10.62,6.1,14.88,2.7-2,2-3.72.86-6.79-.35-.92-.76-2-1.11-3.16a31.63,31.63,0,0,1-1.23-5.84l.51-.1a30.67,30.67,0,0,0,1.21,5.8c.35,1.17.75,2.2,1.1,3.12,1.18,3.05,2,5.1-1,7.32A30.11,30.11,0,0,0,239,306c6.73,4.34,16.18,9.36,21.82,12.36,2,1.05,3.54,1.88,4.34,2.34,3.28,1.88,3.43,3.08,3.56,8.43.12,4.69,4.05,20.17,6,26.49l-.53,0c-2-6.45-5.85-21.81-6-26.5-.14-5.42-.35-6.31-3.3-8-.8-.46-2.36-1.29-4.33-2.34-5.65-3-15.11-8-21.86-12.38C230.42,301.07,228.91,295.75,228.29,288.08Z" style="fill:#263238"></path></g><g id="top"><path d="M261.64,270.42a147.68,147.68,0,0,1-10-12.8l-3.37-17s5.09-.65,9.2,4.79c3.41,4.51,5.92,8.16,10.08,14.18,0,0,5.82-7.9,6.54-9.28a15.42,15.42,0,0,0,1.18-3.42c.8-3.25,2.52-5.05,4.78-7.43.38-.41.77-.81,1.16-1.21a8,8,0,0,0,.56-.6c.15-.2.29-.37.59-.26a.92.92,0,0,1,.47.48,2.7,2.7,0,0,1,0,2.21,13,13,0,0,1-1.13,2c-.3.5.36.44.67.37,1.51-.37,3.25-2.12,4.34-3.2a19.38,19.38,0,0,1,2.11-2.14,3,3,0,0,1,1.72-.65c.43,0,.82.13.78.65a2.27,2.27,0,0,1-.4.9,2.28,2.28,0,0,0-.49,1.8,5.58,5.58,0,0,1,.29,1.32,16.37,16.37,0,0,1-.43,1.67,11.65,11.65,0,0,0,.14,1.46,4.25,4.25,0,0,1-.71,1.62,13.41,13.41,0,0,1-2.2,2.88,26.18,26.18,0,0,1-4.33,3.44,9.69,9.69,0,0,0-2.49,2.9c-.56,1.08-1.85,4.52-2.22,5.5-.46,1.2-3.17,9.26-6.81,12.85C269.34,275.79,266.49,275.79,261.64,270.42Z" style="fill:#c8856a"></path><path d="M267.57,259.64c-1.57,1.91-2.85,5.33-2.51,7.22-.63-2-.22-5.12,2-8Z" style="fill:#af6152"></path><path d="M245.17,240.41c8.35-.38,10.5,2.29,14.33,7.28,2.23,2.9,6.69,9.63,6.69,9.63a13.29,13.29,0,0,1-3.2,6.07,8.7,8.7,0,0,1-5.55,2.53l-6-8.17Z" style="fill:#37474f"></path><path d="M281.44,244.74a6.78,6.78,0,0,1-1.12,6.1s1.52-.25,1.87-2.58C282.51,246.16,282,245.34,281.44,244.74Z" style="fill:#af6152"></path><path d="M256.93,254.7c-1.79-10.58-6.77-14.34-12.23-14.3a40.82,40.82,0,0,0-11.37,1.75A50.9,50.9,0,0,0,222,246.93c-2,1.22-5.7,7-5.16,14.59A205,205,0,0,0,219,282.79c1,6.15,2.23,10.23,4.34,18.19,7.7,1.92,33.57-4.63,38.31-17.76a39.52,39.52,0,0,1-3.35-10.61C258,269,257.5,258,256.93,254.7Z" style="fill:#455a64"></path><g id="head"><path d="M231.17,238.61c-.64-3-3.76-5.94-5.22-8.49s-2.27-4.36-2.23-6.73c0-1.41.82-3.34,1.84-3.79a6.49,6.49,0,0,1,4.4-8.32,22.34,22.34,0,0,0,2.83-.94c1.1-.52,1.32-1.44,2.19-2.25,1.5-1.4,4.13-1.55,5.23.41,1-1.39,2.39-1.42,4-1.08a2.79,2.79,0,0,1,2.28,3.05,2.93,2.93,0,0,1,4.46,1.4c.19.94,0,1.74.68,2.56a1.46,1.46,0,0,0,2.42.06c.29,1.33-.19,2.38-1.65,2.37a3.07,3.07,0,0,1,.5,2.55,2.8,2.8,0,0,1-2.43,2,4.24,4.24,0,0,1-2.2,3.7,30.43,30.43,0,0,1-6.93,2.21l-2.8.71c-.16,0-1,.14-1.1.29Z" style="fill:#263238"></path><path d="M227.37,234.91a2.9,2.9,0,0,0,3.52-.26l.3,9.86c1.84,4.14,9.08,4.52,11.64,3.21s2.17-2.85.36-5.14l.1-1.62a28.83,28.83,0,0,0,3.55-.32c2.33-.43,4-2.41,4.56-5a26.59,26.59,0,0,0-.18-10.07,8.79,8.79,0,0,1-.24-2.45,11.51,11.51,0,0,0-1-5.25c-2.67-2-8.67-2.39-14.08,1.25.8,3.27-.37,6-2.72,7.33.16.89.37,3.14-1.1,3.16-1.06,0-1.19-1.3-2.33-2.42s-3.69-1.32-4.59.45A5.72,5.72,0,0,0,227.37,234.91Z" style="fill:#c8856a"></path><path d="M236.26,224.59l-6.95,2.25a2.84,2.84,0,0,1,1.07,1.09l6.07-1.71Z" style="fill:#263238"></path><path d="M252.55,221.88a14.28,14.28,0,0,0-5.05.94c-1.41.7-1.86,1.29-2.68,1.43s-1.48-.28-3.11-.47a16.3,16.3,0,0,0-5.43.8.88.88,0,0,0-.47.93c.14.69.59.73.77,1.28.54,2.09,1.12,4.47,3.92,4.12,5.07-.66,2.74-5.43,4.65-5.42.72,0,.81,1.41,1.38,2.31a3.91,3.91,0,0,0,.82,1,3.17,3.17,0,0,0,2.67.57,3,3,0,0,0,2.62-2.41,18.46,18.46,0,0,0,.16-2.83c.08-.52.45-.75.39-1.44C253.14,222.22,252.8,221.88,252.55,221.88Zm-9.23,5.45a3.41,3.41,0,0,1-.54,1.58h0c-1,1.51-4,1.82-4.83-.08h0l-.14-.29h0c-.32-.79-.82-2.47-.45-3,.67-.93,4.38-1.45,5.66-.35A3.41,3.41,0,0,1,243.32,227.33Zm8.84-1.79a3.21,3.21,0,0,1-1.09,2.58c-1,.79-3,.57-3.56-.28a4.28,4.28,0,0,1-.85-3.3,4.33,4.33,0,0,1,2.32-1.46,3.81,3.81,0,0,1,2.82,0C252.17,223.36,252.2,224.8,252.16,225.54Z" style="fill:#37474f"></path><path d="M249.08,230.13l-3.44,2-1.43-5.29c.12-.77.27-1.34.92-1.35l.17.14a5.5,5.5,0,0,1,.47.41c.27.26.54.58.83.91.41.49.85,1,1.28,1.59l.58.77.14.19C248.76,229.71,248.93,229.92,249.08,230.13Z" style="fill:#af6152"></path><path d="M243.29,241c-3.73-.27-6.58-.54-8.64-3.15a23.24,23.24,0,0,1-2.44-4.3,18,18,0,0,0,1.85,5.45c1,1.68,3.3,3.09,9.15,3.33Z" style="fill:#af6152"></path><path d="M241.9,226.68a1,1,0,1,1-1.14-1A1.07,1.07,0,0,1,241.9,226.68Z" style="fill:#263238"></path><path d="M241,222.63l-2.37,1a1.35,1.35,0,0,1,.73-1.71A1.25,1.25,0,0,1,241,222.63Z" style="fill:#263238"></path><path d="M241.21,233.33l3.52.87a1.9,1.9,0,0,1-2.26,1.36A1.77,1.77,0,0,1,241.21,233.33Z" style="fill:#af6152"></path><path d="M243.47,235.51a2.15,2.15,0,0,0-2.32-1.67,1.75,1.75,0,0,0,1.32,1.72A1.88,1.88,0,0,0,243.47,235.51Z" style="fill:#ffa8a7"></path><path d="M249.76,221.68l-2.57-.17a1.24,1.24,0,0,1,1.33-1.21A1.34,1.34,0,0,1,249.76,221.68Z" style="fill:#263238"></path><path d="M249.64,225.66a1,1,0,1,1-1-1.08A1.06,1.06,0,0,1,249.64,225.66Z" style="fill:#263238"></path></g><g id="arm"><g id="arm"><path d="M251.18,304.07c-2.1-1.15-4.17-2.34-6.21-3.6-.32-.19-1.69-1.61-.56-1.29,1.84.53,3.81,1.43,5.72.75a.71.71,0,0,0,.38-.24c.22-.33-.13-.73-.46-.93-.51-.31-1.08-.53-1.6-.82-1-.55-1.81-1.34-2.78-1.91-1.51-.88-3.24-.88-4.79-1.55-.89-.39-14.65-12.43-14.66-12.22,0-.21,1.1-18.41,1.1-18.41.14-7.26-1.59-13.63-5.35-16.6a12.49,12.49,0,0,0-6.06,4.82c-1.24,2.17-1.95,5.68-2.26,10.12-.44,6.15-.84,12.23-.76,19,.07,6.26.33,6.91,6.65,11.06,2.29,1.5,10.3,6.12,11.31,6.78a12,12,0,0,1,1.77,1.33c.74.71,1.28,1.59,2,2.28s1.55,1.54,2.41,2.23a13.33,13.33,0,0,0,5,2.65,18.55,18.55,0,0,0,2.58.1,3.53,3.53,0,0,1,.72.22,3.77,3.77,0,0,0,2.36.18,2,2,0,0,1,.47-.11,1.37,1.37,0,0,1,.53.12,2.42,2.42,0,0,0,1,.16,1.53,1.53,0,0,0,1.23-2,1.06,1.06,0,0,0,.56-2Z" style="fill:#c8856a"></path></g><path d="M222,246.93c-3.23,1.67-4.65,2.72-5.77,4.17-2.06,2.67-2.16,5.2-2.57,7.73s-.9,16.05-.9,16.05,1.49,2.21,6.87,3c4.71.73,7.21-1,7.21-1s.53-10.44.69-12.8C227.76,260.06,227.18,251,222,246.93Z" style="fill:#37474f"></path><path d="M226.22,282.26a15.53,15.53,0,0,0-4.93-1.09,17.45,17.45,0,0,1,5,0Z" style="fill:#af6152"></path></g></g></g><path d="M262.13,285.08s-.27,6.12-11.25,11.15c-1,.47-2,.9-3.08,1.3-.72-.49-1.38-1.06-2.13-1.5-1.51-.88-3.24-.88-4.8-1.55a7.59,7.59,0,0,1-.79-.57c5.75-1.84,14.33-5.31,19.68-10.94-3.82-5.61-15.33-19.64-34-30.05-2.31-1.3-12.12-5.38-14-6.12l3.24-4.71c12.41,2.71,26.38,14.19,33.66,21,10.79,10.08,13,18.78,13,18.78Z"></path></g><g id="Side"><polygon points="92.71 268.38 132.48 245.41 110.38 232.65 88.88 246.24 92.71 268.38" style="fill:#BA68C8"></polygon><polygon points="92.71 268.38 132.48 245.41 110.38 232.65 88.88 246.24 92.71 268.38" style="opacity:0.45"></polygon><path d="M109.46,262.92l-5.71-11.36,13.6-7.87h0c26.42-10.43,54.91,47.29,33,64.07h0L136.16,316l-6-12C118.72,295.23,109.91,278,109.46,262.92Z" style="fill:#37474f"></path><path d="M109.46,262.92l-5.71-11.36,13.6-7.87h0c26.42-10.43,54.91,47.29,33,64.07h0L136.16,316l-6-12C118.72,295.23,109.91,278,109.46,262.92Z" style="fill:#263238"></path><path d="M95.29,269.9c0,14.61,8.12,31.5,19,40.85,12.77,12,30.22,8.06,29.66-12.77,0-12.81-6.24-27.41-15.12-37.1C117,246.16,94.64,245.65,95.29,269.9Z" style="fill:#37474f"></path><path d="M95.29,269.9c0,14.59,8.1,31.47,18.94,40.81A69.09,69.09,0,0,1,98.8,280.86c-5.61-27.25,11.57-36.4,30-20C117,246.14,94.64,245.66,95.29,269.9Z" style="fill:#455a64"></path><path d="M119.61,263.31c-8.55-4.94-15.48.3-15.48,11.7s6.93,24.64,15.48,29.57,15.47-.3,15.47-11.7S128.16,268.24,119.61,263.31Zm0,37.71c-7.07-4.08-12.81-15-12.81-24.47s5.74-13.76,12.81-9.68,12.8,15,12.8,24.47S126.68,305.1,119.61,301Z" style="fill:#f5f5f5"></path><path d="M132.42,291.34c-2.55,26.32-27.5.57-25.62-14.78,0-9.44,5.72-13.76,12.81-9.69S132.42,281.91,132.42,291.34Z" style="fill:#e0e0e0"></path><path d="M132.42,291.34c-2.55,26.32-27.5.57-25.62-14.78,0-9.44,5.72-13.76,12.81-9.69S132.42,281.91,132.42,291.34Z" style="opacity:0.4"></path><path d="M132.42,291.34a14.1,14.1,0,0,1-2.26,8.37c-13.25-.16-23.32-22.93-16.46-34.32C124.89,265.55,132.1,280.28,132.42,291.34Z" style="fill:#263238"></path><path d="M117.87,278.05l-2.31,6.72-5.49-12a10.21,10.21,0,0,1,1.16-4.09Z" style="fill:#e0e0e0"></path><path d="M115.59,283.35l4.14,5.85-4.1,4.69a8,8,0,0,1-2.31-3.17Z" style="fill:#e0e0e0"></path><path d="M124.33,288.1l-1.16.49-.29-1.33-4.56,1.26,9.35,13.31a7.09,7.09,0,0,0,2.9-2.75Z" style="fill:#e0e0e0"></path><path d="M131.93,286.4l-7.6,1.7h0l-.7-1.14-.75.3-1.24-5.85.92.53-.06-1.51,7.67-.05A33,33,0,0,1,131.93,286.4Z" style="fill:#e0e0e0"></path><path d="M122.5,280.43l-1.16-.37.3,1.35-5-2.88L121,267.79a22.64,22.64,0,0,1,3.71,3.47Z" style="fill:#e0e0e0"></path><path d="M124.45,286.74c-1.07,9.89-10.52.07-9.69-5.59C115.83,271.26,125.29,281.08,124.45,286.74Z" style="fill:#f5f5f5"></path><path d="M261.74,308.44l0,57.28L151.66,302.58c3.81-30.64-52.79-90.47-59-34.19-13.15-4.54-8.68-42.21-3.93-55.15,4.93-11.64,25.47-23.73,34.24-19.34,5.54,2.93,18.15,10.45,30.58,17.93l-3.13,1.81L134,204.16c-9.24-5.33-5.33,14.93-.43,23.18s15.86,16.26,23.33,20.57l50.59,29Z" style="fill:#BA68C8"></path><path d="M261.74,308.44l0,57.28L151.66,302.58c3.81-30.64-52.79-90.47-59-34.19-13.15-4.54-8.68-42.21-3.93-55.15,4.93-11.64,25.47-23.73,34.24-19.34,5.54,2.93,18.15,10.45,30.58,17.93l-3.13,1.81L134,204.16c-9.24-5.33-5.33,14.93-.43,23.18s15.86,16.26,23.33,20.57l50.59,29Z" style="fill:#fff;opacity:0.4"></path><path d="M253.56,307.88l-54.17-31a4.1,4.1,0,0,0-1.63,3.6Z" style="fill:#fff;opacity:0.2"></path><path d="M209.21,290.29c.83.37.39-1.51.49-1.83.11-2.16-4.85-5-7.1-6.22s-3.91-1.31-3.91-.14c0,.83-.18,2.1.74,2.55Z" style="fill:#37474f"></path><path d="M166.34,257.34c3,1.76,23.51,13.86,25.73,15.25a10.79,10.79,0,0,0-2.77,4.5c-7.45-6.69-85.06-40.66-90.5-67.49-.56-7.44,9.54-11.38,15.46-12.25,4.83-.72,10.42.59,11,6.19.37,3.8.16,7.64.61,11.43a37.89,37.89,0,0,0,6,15.92,47.48,47.48,0,0,0,13,13.49c5.73,3.89,11.76,7.32,17.77,10.78Z" style="fill:#fff;opacity:0.2"></path><path d="M167.59,266.93c.83.37.39-1.52.49-1.84.11-2.16-4.85-5-7.1-6.22s-3.91-1.31-3.91-.14c0,.83-.18,2.11.74,2.55Z" style="fill:#37474f"></path><path d="M257.37,310.62c-.2-.12.62,45.71-4.63,44.17l-57.9-29.9s52.92,30.31,56.6,32.44,5,2,5.93-9.6S259,318.08,257.37,310.62Zm-63.15-37.27s-4,4.41-2.92,12.25,2.82,32.81,2.82,32.81c.69-.24-2.08-39.33,3.19-43.36Zm-56.56-24.27c-1.94,2.53-3.32,9.27-3.32,9.27,3.43-7.39,8.23-10.89,15.55-13C149.89,245.31,139.6,246.56,137.66,249.08ZM90,236.5c-2.2-3.86-3.13-16.74-3.13-16.74-.64,16.49-1,19.93,15.6,26.48C102.46,246.24,92.2,240.37,90,236.5Z" style="fill:#BA68C8;opacity:0.5"></path></g><g id="front-car"><path d="M372.55,224.84h0l.89,3.72c5.95,10.05,11.09,11.56,11.42-.62C385.77,212.79,369.09,201.64,372.55,224.84Z" style="fill:#BA68C8"></path><path d="M372.55,224.84h0c.3,1.54.89,3.72.89,3.72,5.95,10.05,11.09,11.56,11.42-.62C385.77,212.79,369.09,201.64,372.55,224.84Z" style="fill:#fff;opacity:0.30000000000000004"></path><path d="M373.44,228.56c16.13,27.37,13.94-23.28.61-16.15l.78,1.77C380.56,215.35,382.43,236.41,373.44,228.56Z" style="fill:#BA68C8"></path><path d="M372.4,215.14c7.38-5.57,12.86,12.48,12.09,16.6,1-6,0-16.19-7-20.1C375.06,210.58,373.09,213,372.4,215.14Z" style="fill:#37474f"></path><polygon points="266.36 368.39 306.13 345.42 279.56 329.74 266.36 342.91 266.36 368.39" style="fill:#BA68C8"></polygon><polygon points="266.36 368.39 306.13 345.42 279.56 329.74 266.36 342.91 266.36 368.39" style="opacity:0.45"></polygon><path d="M282.74,362.91,277,351.55l13.6-7.87h0c26.41-10.43,54.9,47.29,33,64.07h0l-14.16,8.18-6-12C292,395.22,283.18,378,282.74,362.91Z" style="fill:#37474f"></path><path d="M282.74,362.91,277,351.55l13.6-7.87h0c26.41-10.43,54.9,47.29,33,64.07h0l-14.16,8.18-6-12C292,395.22,283.18,378,282.74,362.91Z" style="fill:#263238"></path><path d="M268.56,369.89c0,14.61,8.13,31.5,19,40.85,12.77,12,30.22,8.06,29.65-12.77,0-12.81-6.24-27.41-15.12-37.1C290.32,346.15,267.92,345.63,268.56,369.89Z" style="fill:#37474f"></path><path d="M268.56,369.89c0,14.59,8.1,31.47,18.95,40.81a68.87,68.87,0,0,1-15.43-29.85c-5.61-27.25,11.57-36.4,30-20C290.31,346.13,267.92,345.65,268.56,369.89Z" style="fill:#455a64"></path><path d="M292.88,363.3c-8.54-4.94-15.47.3-15.47,11.7s6.93,24.64,15.47,29.57,15.48-.3,15.48-11.7S301.43,368.23,292.88,363.3Zm0,37.71c-7.07-4.08-12.8-15-12.8-24.47s5.73-13.76,12.8-9.68,12.81,15,12.81,24.47S300,405.09,292.88,401Z" style="fill:#f5f5f5"></path><path d="M305.69,391.33c-2.54,26.32-27.49.57-25.61-14.78,0-9.44,5.72-13.76,12.81-9.69S305.69,381.9,305.69,391.33Z" style="fill:#e0e0e0"></path><path d="M305.69,391.33c-2.54,26.32-27.49.57-25.61-14.78,0-9.44,5.72-13.76,12.81-9.69S305.69,381.9,305.69,391.33Z" style="opacity:0.4"></path><path d="M305.69,391.33a14,14,0,0,1-2.26,8.37c-13.25-.16-23.32-22.93-16.45-34.32C298.17,365.54,305.38,380.27,305.69,391.33Z" style="fill:#263238"></path><path d="M291.15,378l-2.31,6.72-5.5-12.05a10.39,10.39,0,0,1,1.17-4.09Z" style="fill:#e0e0e0"></path><path d="M288.87,383.34l4.14,5.85-4.1,4.69a8.11,8.11,0,0,1-2.32-3.17Z" style="fill:#e0e0e0"></path><path d="M297.61,388.09l-1.16.49-.3-1.33-4.55,1.26,9.34,13.31a7.17,7.17,0,0,0,2.91-2.75Z" style="fill:#e0e0e0"></path><path d="M305.2,386.39l-7.59,1.7h0l-.7-1.14-.76.3-1.24-5.85.92.53-.06-1.51,7.68-.05A32.21,32.21,0,0,1,305.2,386.39Z" style="fill:#e0e0e0"></path><path d="M295.77,380.42l-1.15-.37.29,1.35-5-2.88,4.38-10.74a21.86,21.86,0,0,1,3.71,3.47Z" style="fill:#e0e0e0"></path><path d="M297.73,386.73c-1.07,9.89-10.53.07-9.69-5.59C289.11,371.25,298.57,381.07,297.73,386.73Z" style="fill:#f5f5f5"></path><g id="Window"><path d="M261.74,308.44l-9-5.2c-.21-5.66.76-7.7-3.27-18.57-4.29-10.89-5.82-15.19-8.41-22.36-.84-2.32-2.13-5.25-3.51-9.25-.81-2.33-1.13-4.78-.23-6.83.27,1,6.31,15.66,9.16,22.06,2.6,5.85,5.53,11.76,8,17.66,1.58,3.75,2.94,6.41,5.14,11.31C260.94,300.39,262.23,303.63,261.74,308.44Z" style="fill:#263238"></path></g><path d="M387.61,239.31c-6.94-11.11-36.61-42.17-47-50.22-1.66-1.32-2.32-1.18-5.18,1.82A169.49,169.49,0,0,1,301.25,217c-17.7,10.11-44.32,22.15-61,26.85a4.29,4.29,0,0,0-2.48,1.42c-1.35,1.71-.11,3.94.71,5.86s1.86,4,2.37,5.17c3.59,8.38,16.89,37.77,18.22,40.92s3.15,6.46,2.62,11.35c-1.58,15.05-2.48,38.65,0,57.15l4.62,2.66c1-38.33,38.4-20.36,49,3.34,14.05,25.38-3.23,32.5,42.82,34.11,32.36,1.12,61.69-14.21,84.8-31,12.51-8.81,17.37-24.29,19-33.39C472.31,293.7,441.5,277.7,387.61,239.31ZM268.4,306.48c-4-7.11-17-41.32-26.47-56.26v0l-1.21-2.6s22.38-3.57,58.61-24.77c35.49-20.8,39.44-31.49,39.58-31.91a350.28,350.28,0,0,1,45.92,48.34C377.77,262.51,270.9,318.14,268.4,306.48Z" style="fill:#BA68C8"></path><path d="M387.61,239.31c-6.94-11.11-36.61-42.17-47-50.22-1.66-1.32-2.32-1.18-5.18,1.82A169.49,169.49,0,0,1,301.25,217c-17.7,10.11-44.32,22.15-61,26.85a4.29,4.29,0,0,0-2.48,1.42c-1.35,1.71-.11,3.94.71,5.86s1.86,4,2.37,5.17c3.59,8.38,16.89,37.77,18.22,40.92s3.15,6.46,2.62,11.35c-1.58,15.05-2.48,38.65,0,57.15l4.62,2.66c1-38.33,38.4-20.36,49,3.34,14.05,25.38-3.23,32.5,42.82,34.11,32.36,1.12,61.69-14.21,84.8-31,12.51-8.81,17.37-24.29,19-33.39C472.31,293.7,441.5,277.7,387.61,239.31ZM268.4,306.48c-4-7.11-17-41.32-26.47-56.26v0l-1.21-2.6s22.38-3.57,58.61-24.77c35.49-20.8,39.44-31.49,39.58-31.91a350.28,350.28,0,0,1,45.92,48.34C377.77,262.51,270.9,318.14,268.4,306.48Z" style="fill:#fff;opacity:0.5"></path><path d="M401.53,360.13a35.92,35.92,0,0,1,4.69,9.44c2.14-1.16,4.19-2.35,6-3.39,2.61-1.48,5.15-3,7.73-4.45a33.83,33.83,0,0,0-4.1-7.79c-3.95-5.41-41.61-43.4-86.9-70.33l-14.37,6.19C359.91,316.73,397.57,354.72,401.53,360.13Z" style="fill:#fff"></path><path d="M435.92,349.22a50.45,50.45,0,0,0,6.08-5.68c1.74-2,3.39-4.37,5.17-6.62-.26-.41-.51-.82-.8-1.22-4-5.41-41.62-43.4-86.91-70.33l-14.37,6.19c45.29,26.94,83,64.92,86.91,70.33A33.14,33.14,0,0,1,435.92,349.22Z" style="fill:#fff"></path><path d="M230.15,297.09c2.23,11.4,19.17,11.77,26.8,9C267.15,298.45,225.31,277.87,230.15,297.09Z" style="fill:#BA68C8"></path><path d="M230.15,297.09c2.23,11.4,19.17,11.77,26.8,9C267.15,298.45,225.31,277.87,230.15,297.09Z" style="fill:#fff;opacity:0.30000000000000004"></path><path d="M230.15,297.09c1.84,8.76,11.54,10.61,18.81,10.39,7.38.11,12.8-2,7.94-8.1-.08,8.09-28.1-.77-21.08-10.34C231.62,288.9,228.87,290.94,230.15,297.09Z" style="fill:#BA68C8"></path><path d="M230.15,297.09c1.84,8.76,11.54,10.61,18.81,10.39-10.7-.59-21.91-12.83-13.14-18.44C231.62,288.9,228.87,290.94,230.15,297.09Z" style="fill:#37474f"></path><path d="M321.44,260.28c47.6-28,62.15-20.85,62.15-20.85-.81,3-3.27,6.71-9.76,12-4.59,3.75-11.25,8.18-17.24,12.21-14.15,9.87-30.24,19-35.09,21.91-24.33,13.19-48.35,24.16-52.43,19.3C269.07,304.83,273.83,288.29,321.44,260.28Z" style="fill:#455a64"></path><path d="M321.44,260.28c-47.61,28-52.37,44.55-52.37,44.55,18.54-18.34,79-61.47,114.15-65.54C380.74,238.44,364.82,234.77,321.44,260.28Z" style="fill:#37474f"></path><path d="M240.7,247.6l27.57,59.11c5.16,9,60-18.81,92.72-41.88,15.77-11.12,26.43-21.15,23.94-25.47a349.07,349.07,0,0,0-46-48.45q-2.53,2.59-5.25,5.07a166.41,166.41,0,0,1-13.59,11.25C299,223,272,236.2,240.7,247.6Zm6.92,6.41a4.48,4.48,0,0,1,2.46-6c29.64-11.37,53.3-23.78,72.14-37.83a170.18,170.18,0,0,0,13.86-11.48l0,0a4.48,4.48,0,0,1,6-.07A344.68,344.68,0,0,1,381.63,241c-.32,1.14-2.84,6.84-22.72,20.86-30.75,21.68-73.44,42.95-86.18,42.95a5,5,0,0,1-1.42-.15Z" style="fill:#37474f"></path><path d="M271.31,304.67a5,5,0,0,0,1.42.15c12.74,0,55.43-21.27,86.18-42.95,19.88-14,22.4-19.72,22.72-20.86a344.68,344.68,0,0,0-39.5-42.45,4.48,4.48,0,0,0-6,.07l0,0a170.18,170.18,0,0,1-13.86,11.48c-18.84,14.05-42.5,26.46-72.14,37.83a4.48,4.48,0,0,0-2.46,6Z" style="fill:#fff;opacity:0.2"></path><path d="M358.91,261.87c-5,3.5-10.22,7-15.62,10.36-11.09-18-28.9-44.09-35.25-52.42q7.5-4.71,14.18-9.68c2.86-2.13,5.57-4.3,8.16-6.47,16.39,15.24,32.87,40.17,39.11,50.27C366.67,256.22,363.2,258.85,358.91,261.87Z" style="fill:#fff;opacity:0.2"></path><path d="M298,225.82q3-1.69,5.91-3.44a587.86,587.86,0,0,1,35.07,52.54q-3.27,2-6.57,3.92C325.19,267.09,311.35,245.11,298,225.82Z" style="fill:#fff;opacity:0.2"></path><path d="M304.46,292.29c-15.53,7.43-31.73,12.53-33,9s-14-28.21-17.28-37.2-4-10-1.88-12.7,13.92-7.11,33-16.12,36.93-25.19,36.93-25.19c-18.84,14.05-42.5,26.46-72.14,37.83a4.48,4.48,0,0,0-2.46,6l23.69,50.66a5,5,0,0,0,1.42.15c12.74,0,55.43-21.27,86.18-42.95C352.59,266.48,320,284.85,304.46,292.29Z" style="fill:#fff;opacity:0.30000000000000004"></path><path d="M298.18,340.45c-6.9-4.54-14.83-6.66-22.85-3.29-3.93,1.65-8.55,4.59-8.76,9.31a1.6,1.6,0,0,0,.08.69,1.08,1.08,0,0,0,1.17.75,5.88,5.88,0,0,0,2.32-1.33c5.34-4,11.8-4.64,18.2-3.2,9.27,2.09,16.14,9.59,23.74,15.3.62.47,1.64.87,2.06.21a1.15,1.15,0,0,0,.13-.87C313.19,353.26,303.51,344,298.18,340.45Zm95.28,14.48c-8.22-2.19-30.1-13.94-36.22-18.06-5.75-3.87-12.51-8.64-17.51-12.26s-10.17-7.29-15.29-10.89Q316,307.83,307.55,302a63.26,63.26,0,0,1-11.66,3.1c9.11,2.23,10.69,1.19,20.43,7,9.54,5.74,16.28,11,26.12,18,10.6,7.55,33.93,23.21,46.95,26.23a54.19,54.19,0,0,0,7.59,1.18,47.19,47.19,0,0,0,12.33-.61C406.37,357.47,396.32,355.69,393.46,354.93Zm12.21-23.75c-12.07-19.31-37.13-35.29-58-45.8C367.88,299.12,390.12,312.7,405.67,331.18Zm33.54-9.45a55.39,55.39,0,0,0-7.93-16.55c-9.65-12.66-22-23.25-29.92-29.87a119.39,119.39,0,0,1-9.64-8.74C382,256.5,384.64,249,384.64,249a21,21,0,0,0-2.34,7.91c-.33,4.37,5.07,10,17.33,20.18a206.84,206.84,0,0,1,28.5,29,45.47,45.47,0,0,1,8.35,14.81c2.08,5.72,3.87,11.59,2.57,17.54C440.33,332.5,441.51,329.19,439.21,321.73Z" style="fill:#fff;opacity:0.30000000000000004"></path><path d="M355.64,360.72c36.07,19.87,2.94,21-16.95,13.77-7.2-1.88-12.36-7.66-12.19-15.3-.21-3.17.14-6.95,4.05-7C339.61,352.11,347.89,356.51,355.64,360.72Z" style="fill:#fafafa"></path><path d="M340.88,375.24a18.45,18.45,0,0,1-3.42-2.66,13.19,13.19,0,0,1-3.41-13,5.49,5.49,0,0,1,1.14-2.11,6.14,6.14,0,0,1,3.52-1.56,21,21,0,0,1,7.67.11c-5-2.24-10.28-3.88-15.83-3.83-3.91.05-4.26,3.83-4.05,7-.17,7.64,5,13.42,12.19,15.3C339.4,374.75,340.14,375,340.88,375.24Z" style="fill:#BA68C8"></path><path d="M451.37,317.6a44.77,44.77,0,0,0,1.84,8.47c3.27,8.48,7.18-5.95,7.51-9.14.5-4.82-1.41-11.94-4.24-16.93s-5.62-5-5.8-1.87A122.85,122.85,0,0,0,451.37,317.6Z" style="fill:#fafafa"></path><path d="M456.48,300c-2.82-5-5.62-5-5.8-1.87,0,.67-.08,1.67-.1,2.92a2.18,2.18,0,0,1,.85-.49c1.19-.33,2.39.49,3.27,1.36a18.93,18.93,0,0,1,4.81,8.58,45.35,45.35,0,0,1,1,5.07c.07.5.15,1,.22,1.51a.89.89,0,0,0,0-.15C461.22,312.11,459.31,305,456.48,300Z" style="fill:#BA68C8"></path><path d="M353.15,386.45a12.66,12.66,0,0,1,4.14,3.53,3.19,3.19,0,0,1,.63,3,3,3,0,0,1-1.86,1.43,13.3,13.3,0,0,1-5.15.39c-3-.18-6.49-.56-8.47-3.18-1.59-2.11-1.76-4.82.81-6.22C346,383.91,350,384.7,353.15,386.45Z" style="fill:#BA68C8"></path><path d="M273.32,311.69c6.56,7.95,13.82,12.93,38.07,22.81s41.7,19.13,46.95,22.5c-16.09-6.83-30.48-13.19-48.09-19.87C290.76,329.74,280.57,326.94,273.32,311.69Z" style="fill:#BA68C8;opacity:0.5"></path><path d="M447.21,304.83c-2.62-11.27-11-22.15-22.69-34.71-12.2-13.15-19.45-18.5-19.45-18.5l-11.3-8s19.31,17.94,29.18,28.05C434.65,283.72,442.11,292.48,447.21,304.83Z" style="fill:#BA68C8;opacity:0.5"></path><path d="M371.71,369.57c10.57,1.09,28.59-1.69,51-14.21,15.79-8.82,26.48-22.17,27.87-28.77,0,5.88,4.23,6.17,4.23,6.17s-4.25,14.68-32.29,30.29c-22.25,12.39-47.09,14.41-47.09,14.41S377.73,373.33,371.71,369.57Z" style="fill:#BA68C8"></path><path d="M371.71,369.57c10.57,1.09,28.59-1.69,51-14.21,15.79-8.82,26.48-22.17,27.87-28.77,0,5.88,4.23,6.17,4.23,6.17s-4.25,14.68-32.29,30.29c-22.25,12.39-47.09,14.41-47.09,14.41S377.73,373.33,371.71,369.57Z" style="fill:#fff;opacity:0.30000000000000004"></path><path d="M427.29,364.26c-26.85,15.79-42.31,14.65-45.66,18.29s4.65,12.5,13.28,12c10.76-.65,23.22-6.84,34-13s20.54-14.62,23.68-21.34c6.07-13,6.58-27,2.48-20.09S443.73,354.58,427.29,364.26Z" style="fill:#263238"></path><path d="M445.15,366.37a112.45,112.45,0,0,1-20.47,13.89,125.11,125.11,0,0,1-30.63,12.27c18.18-2.92,46.16-16.92,56.79-32.14A41.82,41.82,0,0,1,445.15,366.37Zm3.34-14.06a76.18,76.18,0,0,0,6.59-8.19c-17.37,22.43-44.75,33.82-71.61,40.39C407.39,379.88,431.52,370.37,448.49,352.31Zm-.69,7.74c-15.68,14.85-36.46,24.57-57.28,29.81,21.41-3.81,49-16.83,61.73-34.9l-1.42,1.75C450.07,357.74,448.65,359.09,447.8,360.05Zm-.65-3.27c-16.5,15.77-38.24,25-60.16,30.4,24.67-4.71,51.77-16.68,66.68-37.64A66.92,66.92,0,0,1,447.15,356.78Z" style="fill:#455a64"></path></g></g></g></svg>
